{
  "header": {
    "keySignatures": [],
    "meta": [],
    "name": "",
    "ppq": 480,
    "tempos": [
      {
        "bpm": 120,
        "ticks": 0
      }
    ],
    "timeSignatures": []
  },
  "tracks": [
    {
      "channel": 0,
      "controlChanges": {},
      "pitchBends": [],
      "instrument": {
        "family": "piano",
        "number": 4,
        "name": "electric piano 1"
      },
      "name": "",
      "notes": [
        {
          "duration": 0.23229166666666679,
          "durationTicks": 223,
          "midi": 67,
          "name": "G4",
          "ticks": 4728,
          "time": 4.925,
          "velocity": 0.3700787401574803
        },
        {
          "duration": 0.3249999999999993,
          "durationTicks": 312,
          "midi": 51,
          "name": "D#3",
          "ticks": 7785,
          "time": 8.109375,
          "velocity": 0.3464566929133858
        },
        {
          "duration": 0.22083333333333321,
          "durationTicks": 212,
          "midi": 58,
          "name": "A#3",
          "ticks": 8632,
          "time": 8.991666666666667,
          "velocity": 0.3779527559055118
        },
        {
          "duration": 0.18541666666666679,
          "durationTicks": 178,
          "midi": 68,
          "name": "G#4",
          "ticks": 9334,
          "time": 9.722916666666666,
          "velocity": 0.2755905511811024
        },
        {
          "duration": 0.15104166666666607,
          "durationTicks": 145,
          "midi": 67,
          "name": "G4",
          "ticks": 9926,
          "time": 10.339583333333334,
          "velocity": 0.33070866141732286
        },
        {
          "duration": 0.24375000000000036,
          "durationTicks": 234,
          "midi": 58,
          "name": "A#3",
          "ticks": 12713,
          "time": 13.242708333333333,
          "velocity": 0.48031496062992124
        },
        {
          "duration": 0.140625,
          "durationTicks": 135,
          "midi": 67,
          "name": "G4",
          "ticks": 13326,
          "time": 13.88125,
          "velocity": 0.2992125984251969
        },
        {
          "duration": 0.19687500000000036,
          "durationTicks": 189,
          "midi": 55,
          "name": "G3",
          "ticks": 13517,
          "time": 14.080208333333333,
          "velocity": 0.31496062992125984
        },
        {
          "duration": 0.15104166666666785,
          "durationTicks": 145,
          "midi": 59,
          "name": "B3",
          "ticks": 16706,
          "time": 17.402083333333334,
          "velocity": 0.49606299212598426
        },
        {
          "duration": 0.13958333333333073,
          "durationTicks": 134,
          "midi": 67,
          "name": "G4",
          "ticks": 17320,
          "time": 18.041666666666668,
          "velocity": 0.31496062992125984
        },
        {
          "duration": 0.12916666666666643,
          "durationTicks": 124,
          "midi": 56,
          "name": "G#3",
          "ticks": 19059,
          "time": 19.853125,
          "velocity": 0.3464566929133858
        },
        {
          "duration": 0.42916666666666714,
          "durationTicks": 412,
          "midi": 58,
          "name": "A#3",
          "ticks": 19885,
          "time": 20.713541666666668,
          "velocity": 0.3858267716535433
        },
        {
          "duration": 0.232291666666665,
          "durationTicks": 223,
          "midi": 59,
          "name": "B3",
          "ticks": 21647,
          "time": 22.548958333333335,
          "velocity": 0.36220472440944884
        },
        {
          "duration": 0.19687499999999858,
          "durationTicks": 189,
          "midi": 67,
          "name": "G4",
          "ticks": 22383,
          "time": 23.315625,
          "velocity": 0.30708661417322836
        },
        {
          "duration": 0.32500000000000284,
          "durationTicks": 312,
          "midi": 55,
          "name": "G3",
          "ticks": 24815,
          "time": 25.848958333333332,
          "velocity": 0.33858267716535434
        },
        {
          "duration": 0.24374999999999858,
          "durationTicks": 234,
          "midi": 58,
          "name": "A#3",
          "ticks": 32152,
          "time": 33.49166666666667,
          "velocity": 0.30708661417322836
        },
        {
          "duration": 0.16250000000000142,
          "durationTicks": 156,
          "midi": 58,
          "name": "A#3",
          "ticks": 32677,
          "time": 34.03854166666667,
          "velocity": 0.3543307086614173
        },
        {
          "duration": 0.5802083333333314,
          "durationTicks": 557,
          "midi": 58,
          "name": "A#3",
          "ticks": 33068,
          "time": 34.44583333333333,
          "velocity": 0.33858267716535434
        },
        {
          "duration": 0.22187499999999716,
          "durationTicks": 213,
          "midi": 58,
          "name": "A#3",
          "ticks": 34193,
          "time": 35.61770833333333,
          "velocity": 0.47244094488188976
        },
        {
          "duration": 0.1510416666666643,
          "durationTicks": 145,
          "midi": 34,
          "name": "A#1",
          "ticks": 34373,
          "time": 35.80520833333333,
          "velocity": 0.3543307086614173
        },
        {
          "duration": 0.7781249999999957,
          "durationTicks": 747,
          "midi": 58,
          "name": "A#3",
          "ticks": 34573,
          "time": 36.01354166666667,
          "velocity": 0.3858267716535433
        },
        {
          "duration": 0.22083333333333144,
          "durationTicks": 212,
          "midi": 58,
          "name": "A#3",
          "ticks": 35465,
          "time": 36.942708333333336,
          "velocity": 0.4645669291338583
        },
        {
          "duration": 0.8135416666666657,
          "durationTicks": 781,
          "midi": 58,
          "name": "A#3",
          "ticks": 35833,
          "time": 37.32604166666667,
          "velocity": 0.3858267716535433
        },
        {
          "duration": 0.1510416666666643,
          "durationTicks": 145,
          "midi": 58,
          "name": "A#3",
          "ticks": 36637,
          "time": 38.16354166666667,
          "velocity": 0.5039370078740157
        },
        {
          "duration": 0.24374999999999858,
          "durationTicks": 234,
          "midi": 58,
          "name": "A#3",
          "ticks": 36782,
          "time": 38.31458333333333,
          "velocity": 0.4094488188976378
        },
        {
          "duration": 0.16250000000000142,
          "durationTicks": 156,
          "midi": 58,
          "name": "A#3",
          "ticks": 37016,
          "time": 38.55833333333333,
          "velocity": 0.47244094488188976
        },
        {
          "duration": 0.47604166666666714,
          "durationTicks": 457,
          "midi": 59,
          "name": "B3",
          "ticks": 37172,
          "time": 38.72083333333333,
          "velocity": 0.5984251968503937
        },
        {
          "duration": 0.3135416666666728,
          "durationTicks": 301,
          "midi": 58,
          "name": "A#3",
          "ticks": 37796,
          "time": 39.37083333333333,
          "velocity": 0.3779527559055118
        },
        {
          "duration": 0.22083333333333854,
          "durationTicks": 212,
          "midi": 57,
          "name": "A3",
          "ticks": 38276,
          "time": 39.87083333333333,
          "velocity": 0.36220472440944884
        },
        {
          "duration": 0.13958333333333428,
          "durationTicks": 134,
          "midi": 59,
          "name": "B3",
          "ticks": 38912,
          "time": 40.53333333333333,
          "velocity": 0.6062992125984252
        },
        {
          "duration": 0.27812500000000284,
          "durationTicks": 267,
          "midi": 34,
          "name": "A#1",
          "ticks": 39056,
          "time": 40.68333333333333,
          "velocity": 0.29133858267716534
        },
        {
          "duration": 0.23229166666666856,
          "durationTicks": 223,
          "midi": 63,
          "name": "D#4",
          "ticks": 39413,
          "time": 41.05520833333333,
          "velocity": 0.31496062992125984
        },
        {
          "duration": 0.4312499999999986,
          "durationTicks": 414,
          "midi": 34,
          "name": "A#1",
          "ticks": 39747,
          "time": 41.403125,
          "velocity": 0.3228346456692913
        },
        {
          "duration": 0.34791666666667,
          "durationTicks": 334,
          "midi": 58,
          "name": "A#3",
          "ticks": 40050,
          "time": 41.71875,
          "velocity": 0.4094488188976378
        },
        {
          "duration": 0.5687499999999943,
          "durationTicks": 546,
          "midi": 34,
          "name": "A#1",
          "ticks": 40362,
          "time": 42.04375,
          "velocity": 0.3228346456692913
        },
        {
          "duration": 0.3947916666666629,
          "durationTicks": 379,
          "midi": 59,
          "name": "B3",
          "ticks": 40384,
          "time": 42.06666666666667,
          "velocity": 0.3779527559055118
        },
        {
          "duration": 0.140625,
          "durationTicks": 135,
          "midi": 58,
          "name": "A#3",
          "ticks": 41944,
          "time": 43.69166666666667,
          "velocity": 0.31496062992125984
        },
        {
          "duration": 0.16250000000000142,
          "durationTicks": 156,
          "midi": 58,
          "name": "A#3",
          "ticks": 42581,
          "time": 44.35520833333333,
          "velocity": 0.4094488188976378
        },
        {
          "duration": 0.2906249999999986,
          "durationTicks": 279,
          "midi": 59,
          "name": "B3",
          "ticks": 42737,
          "time": 44.51770833333333,
          "velocity": 0.4566929133858268
        },
        {
          "duration": 0.4072916666666657,
          "durationTicks": 391,
          "midi": 58,
          "name": "A#3",
          "ticks": 43829,
          "time": 45.655208333333334,
          "velocity": 0.3937007874015748
        },
        {
          "duration": 0.2906250000000057,
          "durationTicks": 279,
          "midi": 63,
          "name": "D#4",
          "ticks": 44388,
          "time": 46.2375,
          "velocity": 0.3464566929133858
        },
        {
          "duration": 0.2552083333333357,
          "durationTicks": 245,
          "midi": 63,
          "name": "D#4",
          "ticks": 44666,
          "time": 46.52708333333333,
          "velocity": 0.47244094488188976
        },
        {
          "duration": 0.4177083333333371,
          "durationTicks": 401,
          "midi": 63,
          "name": "D#4",
          "ticks": 45235,
          "time": 47.119791666666664,
          "velocity": 0.30708661417322836
        },
        {
          "duration": 0.24374999999999858,
          "durationTicks": 234,
          "midi": 58,
          "name": "A#3",
          "ticks": 45502,
          "time": 47.39791666666667,
          "velocity": 0.3937007874015748
        },
        {
          "duration": 0.3020833333333286,
          "durationTicks": 290,
          "midi": 58,
          "name": "A#3",
          "ticks": 46273,
          "time": 48.20104166666667,
          "velocity": 0.4566929133858268
        },
        {
          "duration": 0.17395833333333854,
          "durationTicks": 167,
          "midi": 34,
          "name": "A#1",
          "ticks": 46796,
          "time": 48.74583333333333,
          "velocity": 0.2992125984251969
        },
        {
          "duration": 0.18541666666666856,
          "durationTicks": 178,
          "midi": 58,
          "name": "A#3",
          "ticks": 47131,
          "time": 49.094791666666666,
          "velocity": 0.5039370078740157
        },
        {
          "duration": 0.16250000000000142,
          "durationTicks": 156,
          "midi": 59,
          "name": "B3",
          "ticks": 47309,
          "time": 49.280208333333334,
          "velocity": 0.6614173228346457
        },
        {
          "duration": 0.17395833333333144,
          "durationTicks": 167,
          "midi": 59,
          "name": "B3",
          "ticks": 47465,
          "time": 49.442708333333336,
          "velocity": 0.5275590551181102
        },
        {
          "duration": 0.37291666666666146,
          "durationTicks": 358,
          "midi": 34,
          "name": "A#1",
          "ticks": 47532,
          "time": 49.5125,
          "velocity": 0.31496062992125984
        },
        {
          "duration": 0.23229166666666146,
          "durationTicks": 223,
          "midi": 61,
          "name": "C#4",
          "ticks": 47734,
          "time": 49.72291666666667,
          "velocity": 0.2755905511811024
        },
        {
          "duration": 0.2666666666666657,
          "durationTicks": 256,
          "midi": 58,
          "name": "A#3",
          "ticks": 48024,
          "time": 50.025,
          "velocity": 0.5118110236220472
        },
        {
          "duration": 0.2552083333333357,
          "durationTicks": 245,
          "midi": 58,
          "name": "A#3",
          "ticks": 48280,
          "time": 50.291666666666664,
          "velocity": 0.4251968503937008
        },
        {
          "duration": 0.23229166666666856,
          "durationTicks": 223,
          "midi": 58,
          "name": "A#3",
          "ticks": 48525,
          "time": 50.546875,
          "velocity": 0.5905511811023622
        },
        {
          "duration": 0.6041666666666643,
          "durationTicks": 580,
          "midi": 58,
          "name": "A#3",
          "ticks": 48748,
          "time": 50.77916666666667,
          "velocity": 0.5196850393700787
        },
        {
          "duration": 0.32499999999999574,
          "durationTicks": 312,
          "midi": 56,
          "name": "G#3",
          "ticks": 50900,
          "time": 53.020833333333336,
          "velocity": 0.33070866141732286
        },
        {
          "duration": 0.1510416666666643,
          "durationTicks": 145,
          "midi": 56,
          "name": "G#3",
          "ticks": 51559,
          "time": 53.70729166666667,
          "velocity": 0.3228346456692913
        },
        {
          "duration": 0.18541666666666856,
          "durationTicks": 178,
          "midi": 67,
          "name": "G4",
          "ticks": 54458,
          "time": 56.72708333333333,
          "velocity": 0.31496062992125984
        },
        {
          "duration": 0.13958333333333428,
          "durationTicks": 134,
          "midi": 67,
          "name": "G4",
          "ticks": 55440,
          "time": 57.75,
          "velocity": 0.3228346456692913
        },
        {
          "duration": 0.13958333333333428,
          "durationTicks": 134,
          "midi": 59,
          "name": "B3",
          "ticks": 57782,
          "time": 60.18958333333333,
          "velocity": 0.2992125984251969
        },
        {
          "duration": 0.1510416666666643,
          "durationTicks": 145,
          "midi": 67,
          "name": "G4",
          "ticks": 58384,
          "time": 60.81666666666667,
          "velocity": 0.33858267716535434
        },
        {
          "duration": 0.22083333333333144,
          "durationTicks": 212,
          "midi": 58,
          "name": "A#3",
          "ticks": 58785,
          "time": 61.234375,
          "velocity": 0.3937007874015748
        },
        {
          "duration": 0.5916666666666686,
          "durationTicks": 568,
          "midi": 63,
          "name": "D#4",
          "ticks": 59756,
          "time": 62.24583333333333,
          "velocity": 0.3779527559055118
        },
        {
          "duration": 0.3479166666666629,
          "durationTicks": 334,
          "midi": 62,
          "name": "D4",
          "ticks": 60336,
          "time": 62.85,
          "velocity": 0.3543307086614173
        },
        {
          "duration": 0.2552083333333357,
          "durationTicks": 245,
          "midi": 63,
          "name": "D#4",
          "ticks": 60670,
          "time": 63.197916666666664,
          "velocity": 0.36220472440944884
        },
        {
          "duration": 0.21041666666666714,
          "durationTicks": 202,
          "midi": 63,
          "name": "D#4",
          "ticks": 61005,
          "time": 63.546875,
          "velocity": 0.2992125984251969
        },
        {
          "duration": 0.19687499999999147,
          "durationTicks": 189,
          "midi": 59,
          "name": "B3",
          "ticks": 64183,
          "time": 66.85729166666667,
          "velocity": 0.33858267716535434
        },
        {
          "duration": 0.1510416666666714,
          "durationTicks": 145,
          "midi": 58,
          "name": "A#3",
          "ticks": 65210,
          "time": 67.92708333333333,
          "velocity": 0.25984251968503935
        },
        {
          "duration": 0.27812499999998863,
          "durationTicks": 267,
          "midi": 63,
          "name": "D#4",
          "ticks": 66280,
          "time": 69.04166666666667,
          "velocity": 0.4409448818897638
        },
        {
          "duration": 0.16249999999999432,
          "durationTicks": 156,
          "midi": 63,
          "name": "D#4",
          "ticks": 66548,
          "time": 69.32083333333334,
          "velocity": 0.36220472440944884
        },
        {
          "duration": 0.140625,
          "durationTicks": 135,
          "midi": 63,
          "name": "D#4",
          "ticks": 66704,
          "time": 69.48333333333333,
          "velocity": 0.5354330708661418
        },
        {
          "duration": 0.27812500000000284,
          "durationTicks": 267,
          "midi": 63,
          "name": "D#4",
          "ticks": 66839,
          "time": 69.62395833333333,
          "velocity": 0.5196850393700787
        },
        {
          "duration": 0.47604166666666003,
          "durationTicks": 457,
          "midi": 63,
          "name": "D#4",
          "ticks": 67151,
          "time": 69.94895833333334,
          "velocity": 0.4645669291338583
        },
        {
          "duration": 0.22083333333333144,
          "durationTicks": 212,
          "midi": 63,
          "name": "D#4",
          "ticks": 67652,
          "time": 70.47083333333333,
          "velocity": 0.41732283464566927
        },
        {
          "duration": 0.20937500000000853,
          "durationTicks": 201,
          "midi": 63,
          "name": "D#4",
          "ticks": 67864,
          "time": 70.69166666666666,
          "velocity": 0.5196850393700787
        },
        {
          "duration": 0.2666666666666657,
          "durationTicks": 256,
          "midi": 63,
          "name": "D#4",
          "ticks": 68065,
          "time": 70.90104166666667,
          "velocity": 0.4094488188976378
        },
        {
          "duration": 0.56979166666666,
          "durationTicks": 547,
          "midi": 63,
          "name": "D#4",
          "ticks": 68321,
          "time": 71.16770833333334,
          "velocity": 0.48031496062992124
        },
        {
          "duration": 0.16250000000000853,
          "durationTicks": 156,
          "midi": 61,
          "name": "C#4",
          "ticks": 68902,
          "time": 71.77291666666666,
          "velocity": 0.2677165354330709
        },
        {
          "duration": 0.23229166666666856,
          "durationTicks": 223,
          "midi": 59,
          "name": "B3",
          "ticks": 69437,
          "time": 72.33020833333333,
          "velocity": 0.3464566929133858
        },
        {
          "duration": 0.22083333333333144,
          "durationTicks": 212,
          "midi": 58,
          "name": "A#3",
          "ticks": 70865,
          "time": 73.81770833333333,
          "velocity": 0.48031496062992124
        },
        {
          "duration": 0.1510416666666714,
          "durationTicks": 145,
          "midi": 63,
          "name": "D#4",
          "ticks": 71478,
          "time": 74.45625,
          "velocity": 0.3700787401574803
        },
        {
          "duration": 0.16249999999999432,
          "durationTicks": 156,
          "midi": 58,
          "name": "A#3",
          "ticks": 71890,
          "time": 74.88541666666667,
          "velocity": 0.3858267716535433
        },
        {
          "duration": 0.3479166666666629,
          "durationTicks": 334,
          "midi": 59,
          "name": "B3",
          "ticks": 72046,
          "time": 75.04791666666667,
          "velocity": 0.3228346456692913
        },
        {
          "duration": 0.16250000000000853,
          "durationTicks": 156,
          "midi": 66,
          "name": "F#4",
          "ticks": 73128,
          "time": 76.175,
          "velocity": 0.4881889763779528
        },
        {
          "duration": 0.20937500000000853,
          "durationTicks": 201,
          "midi": 63,
          "name": "D#4",
          "ticks": 73563,
          "time": 76.628125,
          "velocity": 0.3464566929133858
        },
        {
          "duration": 0.13958333333333428,
          "durationTicks": 134,
          "midi": 58,
          "name": "A#3",
          "ticks": 74098,
          "time": 77.18541666666667,
          "velocity": 0.4409448818897638
        },
        {
          "duration": 0.2916666666666572,
          "durationTicks": 280,
          "midi": 59,
          "name": "B3",
          "ticks": 74232,
          "time": 77.325,
          "velocity": 0.41732283464566927
        },
        {
          "duration": 0.3135416666666657,
          "durationTicks": 301,
          "midi": 67,
          "name": "G4",
          "ticks": 74913,
          "time": 78.034375,
          "velocity": 0.4015748031496063
        },
        {
          "duration": 0.16250000000000853,
          "durationTicks": 156,
          "midi": 58,
          "name": "A#3",
          "ticks": 75994,
          "time": 79.16041666666666,
          "velocity": 0.4094488188976378
        },
        {
          "duration": 0.26874999999999716,
          "durationTicks": 258,
          "midi": 59,
          "name": "B3",
          "ticks": 76150,
          "time": 79.32291666666667,
          "velocity": 0.4645669291338583
        },
        {
          "duration": 0.20937499999999432,
          "durationTicks": 201,
          "midi": 67,
          "name": "G4",
          "ticks": 76720,
          "time": 79.91666666666667,
          "velocity": 0.4566929133858268
        },
        {
          "duration": 0.17395833333333144,
          "durationTicks": 167,
          "midi": 65,
          "name": "F4",
          "ticks": 77010,
          "time": 80.21875,
          "velocity": 0.4094488188976378
        },
        {
          "duration": 0.13958333333333428,
          "durationTicks": 134,
          "midi": 65,
          "name": "F4",
          "ticks": 77411,
          "time": 80.63645833333334,
          "velocity": 0.4015748031496063
        },
        {
          "duration": 0.22083333333333144,
          "durationTicks": 212,
          "midi": 67,
          "name": "G4",
          "ticks": 77567,
          "time": 80.79895833333333,
          "velocity": 0.5669291338582677
        },
        {
          "duration": 0.18541666666666856,
          "durationTicks": 178,
          "midi": 88,
          "name": "E6",
          "ticks": 77790,
          "time": 81.03125,
          "velocity": 0.25984251968503935
        },
        {
          "duration": 0.3843749999999915,
          "durationTicks": 369,
          "midi": 64,
          "name": "E4",
          "ticks": 77890,
          "time": 81.13541666666667,
          "velocity": 0.33070866141732286
        },
        {
          "duration": 0.3604166666666657,
          "durationTicks": 346,
          "midi": 63,
          "name": "D#4",
          "ticks": 78538,
          "time": 81.81041666666667,
          "velocity": 0.3464566929133858
        },
        {
          "duration": 0.22083333333333144,
          "durationTicks": 212,
          "midi": 63,
          "name": "D#4",
          "ticks": 78883,
          "time": 82.16979166666667,
          "velocity": 0.3937007874015748
        },
        {
          "duration": 0.1510416666666714,
          "durationTicks": 145,
          "midi": 58,
          "name": "A#3",
          "ticks": 79875,
          "time": 83.203125,
          "velocity": 0.5433070866141733
        },
        {
          "duration": 0.2916666666666572,
          "durationTicks": 280,
          "midi": 59,
          "name": "B3",
          "ticks": 80020,
          "time": 83.35416666666667,
          "velocity": 0.5196850393700787
        },
        {
          "duration": 0.1875,
          "durationTicks": 180,
          "midi": 63,
          "name": "D#4",
          "ticks": 81961,
          "time": 85.37604166666667,
          "velocity": 0.36220472440944884
        },
        {
          "duration": 0.18541666666666856,
          "durationTicks": 178,
          "midi": 58,
          "name": "A#3",
          "ticks": 82831,
          "time": 86.28229166666667,
          "velocity": 0.41732283464566927
        },
        {
          "duration": 0.16354166666667425,
          "durationTicks": 157,
          "midi": 58,
          "name": "A#3",
          "ticks": 83868,
          "time": 87.3625,
          "velocity": 0.4881889763779528
        },
        {
          "duration": 0.18541666666666856,
          "durationTicks": 178,
          "midi": 59,
          "name": "B3",
          "ticks": 84025,
          "time": 87.52604166666667,
          "velocity": 0.5039370078740157
        },
        {
          "duration": 0.4416666666666629,
          "durationTicks": 424,
          "midi": 59,
          "name": "B3",
          "ticks": 84203,
          "time": 87.71145833333334,
          "velocity": 0.4409448818897638
        },
        {
          "duration": 0.1510416666666714,
          "durationTicks": 145,
          "midi": 58,
          "name": "A#3",
          "ticks": 85843,
          "time": 89.41979166666667,
          "velocity": 0.30708661417322836
        },
        {
          "duration": 0.19687499999999147,
          "durationTicks": 189,
          "midi": 63,
          "name": "D#4",
          "ticks": 86278,
          "time": 89.87291666666667,
          "velocity": 0.3228346456692913
        },
        {
          "duration": 0.18541666666666856,
          "durationTicks": 178,
          "midi": 51,
          "name": "D#3",
          "ticks": 88140,
          "time": 91.8125,
          "velocity": 0.33070866141732286
        },
        {
          "duration": 0.23333333333333428,
          "durationTicks": 224,
          "midi": 58,
          "name": "A#3",
          "ticks": 89567,
          "time": 93.29895833333333,
          "velocity": 0.4015748031496063
        },
        {
          "duration": 0.18541666666665435,
          "durationTicks": 178,
          "midi": 58,
          "name": "A#3",
          "ticks": 90549,
          "time": 94.321875,
          "velocity": 0.36220472440944884
        },
        {
          "duration": 0.1510416666666714,
          "durationTicks": 145,
          "midi": 58,
          "name": "A#3",
          "ticks": 91140,
          "time": 94.9375,
          "velocity": 0.29133858267716534
        },
        {
          "duration": 0.19687500000000568,
          "durationTicks": 189,
          "midi": 59,
          "name": "B3",
          "ticks": 92255,
          "time": 96.09895833333333,
          "velocity": 0.41732283464566927
        },
        {
          "duration": 0.17395833333333144,
          "durationTicks": 167,
          "midi": 63,
          "name": "D#4",
          "ticks": 96649,
          "time": 100.67604166666666,
          "velocity": 0.31496062992125984
        },
        {
          "duration": 0.16249999999999432,
          "durationTicks": 156,
          "midi": 52,
          "name": "E3",
          "ticks": 100486,
          "time": 104.67291666666667,
          "velocity": 0.28346456692913385
        },
        {
          "duration": 0.16250000000000853,
          "durationTicks": 156,
          "midi": 67,
          "name": "G4",
          "ticks": 104267,
          "time": 108.61145833333333,
          "velocity": 0.5433070866141733
        },
        {
          "duration": 0.1875,
          "durationTicks": 180,
          "midi": 58,
          "name": "A#3",
          "ticks": 108605,
          "time": 113.13020833333333,
          "velocity": 0.4251968503937008
        },
        {
          "duration": 0.18541666666666856,
          "durationTicks": 178,
          "midi": 59,
          "name": "B3",
          "ticks": 109587,
          "time": 114.153125,
          "velocity": 0.28346456692913385
        },
        {
          "duration": 0.19687500000000568,
          "durationTicks": 189,
          "midi": 58,
          "name": "A#3",
          "ticks": 113479,
          "time": 118.20729166666666,
          "velocity": 0.3858267716535433
        },
        {
          "duration": 0.13958333333333428,
          "durationTicks": 134,
          "midi": 55,
          "name": "G3",
          "ticks": 114081,
          "time": 118.834375,
          "velocity": 0.23622047244094488
        },
        {
          "duration": 0.19687500000000568,
          "durationTicks": 189,
          "midi": 58,
          "name": "A#3",
          "ticks": 114472,
          "time": 119.24166666666666,
          "velocity": 0.30708661417322836
        },
        {
          "duration": 0.1510416666666714,
          "durationTicks": 145,
          "midi": 58,
          "name": "A#3",
          "ticks": 118264,
          "time": 123.19166666666666,
          "velocity": 0.2992125984251969
        },
        {
          "duration": 0.1875,
          "durationTicks": 180,
          "midi": 58,
          "name": "A#3",
          "ticks": 120025,
          "time": 125.02604166666667,
          "velocity": 0.3779527559055118
        },
        {
          "duration": 0.1510416666666572,
          "durationTicks": 145,
          "midi": 58,
          "name": "A#3",
          "ticks": 126918,
          "time": 132.20625,
          "velocity": 0.28346456692913385
        },
        {
          "duration": 0.22083333333333144,
          "durationTicks": 212,
          "midi": 63,
          "name": "D#4",
          "ticks": 127542,
          "time": 132.85625,
          "velocity": 0.4094488188976378
        },
        {
          "duration": 0.32500000000001705,
          "durationTicks": 312,
          "midi": 63,
          "name": "D#4",
          "ticks": 127911,
          "time": 133.240625,
          "velocity": 0.3858267716535433
        },
        {
          "duration": 0.17395833333333144,
          "durationTicks": 167,
          "midi": 63,
          "name": "D#4",
          "ticks": 128223,
          "time": 133.565625,
          "velocity": 0.4566929133858268
        },
        {
          "duration": 0.16249999999999432,
          "durationTicks": 156,
          "midi": 63,
          "name": "D#4",
          "ticks": 128580,
          "time": 133.9375,
          "velocity": 0.3937007874015748
        },
        {
          "duration": 0.13958333333332007,
          "durationTicks": 134,
          "midi": 64,
          "name": "E4",
          "ticks": 128870,
          "time": 134.23958333333334,
          "velocity": 0.28346456692913385
        },
        {
          "duration": 0.3947916666666629,
          "durationTicks": 379,
          "midi": 63,
          "name": "D#4",
          "ticks": 129952,
          "time": 135.36666666666667,
          "velocity": 0.3700787401574803
        },
        {
          "duration": 0.37187499999998863,
          "durationTicks": 357,
          "midi": 63,
          "name": "D#4",
          "ticks": 130331,
          "time": 135.76145833333334,
          "velocity": 0.3543307086614173
        },
        {
          "duration": 0.13958333333332007,
          "durationTicks": 134,
          "midi": 64,
          "name": "E4",
          "ticks": 130710,
          "time": 136.15625,
          "velocity": 0.36220472440944884
        },
        {
          "duration": 0.7562499999999943,
          "durationTicks": 726,
          "midi": 64,
          "name": "E4",
          "ticks": 131535,
          "time": 137.015625,
          "velocity": 0.3464566929133858
        },
        {
          "duration": 0.1510416666666572,
          "durationTicks": 145,
          "midi": 64,
          "name": "E4",
          "ticks": 132272,
          "time": 137.78333333333333,
          "velocity": 0.41732283464566927
        },
        {
          "duration": 0.24375000000000568,
          "durationTicks": 234,
          "midi": 63,
          "name": "D#4",
          "ticks": 133052,
          "time": 138.59583333333333,
          "velocity": 0.4881889763779528
        },
        {
          "duration": 0.26874999999998295,
          "durationTicks": 258,
          "midi": 63,
          "name": "D#4",
          "ticks": 133297,
          "time": 138.85104166666667,
          "velocity": 0.3464566929133858
        },
        {
          "duration": 0.40625,
          "durationTicks": 390,
          "midi": 58,
          "name": "A#3",
          "ticks": 133967,
          "time": 139.54895833333333,
          "velocity": 0.4251968503937008
        },
        {
          "duration": 0.22083333333333144,
          "durationTicks": 212,
          "midi": 58,
          "name": "A#3",
          "ticks": 134357,
          "time": 139.95520833333333,
          "velocity": 0.5354330708661418
        },
        {
          "duration": 0.15104166666668561,
          "durationTicks": 145,
          "midi": 63,
          "name": "D#4",
          "ticks": 135104,
          "time": 140.73333333333332,
          "velocity": 0.29133858267716534
        },
        {
          "duration": 0.19687500000000568,
          "durationTicks": 189,
          "midi": 58,
          "name": "A#3",
          "ticks": 135484,
          "time": 141.12916666666666,
          "velocity": 0.3858267716535433
        },
        {
          "duration": 0.2666666666666515,
          "durationTicks": 256,
          "midi": 67,
          "name": "G4",
          "ticks": 135941,
          "time": 141.60520833333334,
          "velocity": 0.4645669291338583
        },
        {
          "duration": 0.20937500000002274,
          "durationTicks": 201,
          "midi": 63,
          "name": "D#4",
          "ticks": 136242,
          "time": 141.91875,
          "velocity": 0.4094488188976378
        },
        {
          "duration": 0.18541666666666856,
          "durationTicks": 178,
          "midi": 63,
          "name": "D#4",
          "ticks": 136443,
          "time": 142.128125,
          "velocity": 0.4409448818897638
        },
        {
          "duration": 0.17395833333335986,
          "durationTicks": 167,
          "midi": 58,
          "name": "A#3",
          "ticks": 136799,
          "time": 142.49895833333332,
          "velocity": 0.5196850393700787
        },
        {
          "duration": 0.13958333333332007,
          "durationTicks": 134,
          "midi": 65,
          "name": "F4",
          "ticks": 137000,
          "time": 142.70833333333334,
          "velocity": 0.2440944881889764
        },
        {
          "duration": 0.19687500000000568,
          "durationTicks": 189,
          "midi": 58,
          "name": "A#3",
          "ticks": 137725,
          "time": 143.46354166666666,
          "velocity": 0.3779527559055118
        },
        {
          "duration": 0.18541666666666856,
          "durationTicks": 178,
          "midi": 58,
          "name": "A#3",
          "ticks": 137915,
          "time": 143.66145833333334,
          "velocity": 0.3228346456692913
        },
        {
          "duration": 0.16249999999999432,
          "durationTicks": 156,
          "midi": 58,
          "name": "A#3",
          "ticks": 138093,
          "time": 143.846875,
          "velocity": 0.4409448818897638
        },
        {
          "duration": 0.15104166666668561,
          "durationTicks": 145,
          "midi": 58,
          "name": "A#3",
          "ticks": 138651,
          "time": 144.428125,
          "velocity": 0.2677165354330709
        },
        {
          "duration": 0.22083333333333144,
          "durationTicks": 212,
          "midi": 67,
          "name": "G4",
          "ticks": 146156,
          "time": 152.24583333333334,
          "velocity": 0.3858267716535433
        },
        {
          "duration": 0.16249999999999432,
          "durationTicks": 156,
          "midi": 53,
          "name": "F3",
          "ticks": 146893,
          "time": 153.01354166666667,
          "velocity": 0.30708661417322836
        },
        {
          "duration": 0.3020833333333144,
          "durationTicks": 290,
          "midi": 67,
          "name": "G4",
          "ticks": 149525,
          "time": 155.75520833333334,
          "velocity": 0.3779527559055118
        },
        {
          "duration": 0.17395833333333144,
          "durationTicks": 167,
          "midi": 58,
          "name": "A#3",
          "ticks": 152949,
          "time": 159.321875,
          "velocity": 0.33070866141732286
        },
        {
          "duration": 0.12916666666666288,
          "durationTicks": 124,
          "midi": 58,
          "name": "A#3",
          "ticks": 154353,
          "time": 160.784375,
          "velocity": 0.33858267716535434
        },
        {
          "duration": 0.19687500000000568,
          "durationTicks": 189,
          "midi": 58,
          "name": "A#3",
          "ticks": 156462,
          "time": 162.98125,
          "velocity": 0.3543307086614173
        },
        {
          "duration": 0.18541666666666856,
          "durationTicks": 178,
          "midi": 58,
          "name": "A#3",
          "ticks": 157878,
          "time": 164.45625,
          "velocity": 0.3779527559055118
        },
        {
          "duration": 0.16249999999999432,
          "durationTicks": 156,
          "midi": 58,
          "name": "A#3",
          "ticks": 158056,
          "time": 164.64166666666668,
          "velocity": 0.3779527559055118
        },
        {
          "duration": 0.1875,
          "durationTicks": 180,
          "midi": 58,
          "name": "A#3",
          "ticks": 158223,
          "time": 164.815625,
          "velocity": 0.3779527559055118
        },
        {
          "duration": 0.13958333333332007,
          "durationTicks": 134,
          "midi": 63,
          "name": "D#4",
          "ticks": 158737,
          "time": 165.35104166666667,
          "velocity": 0.29133858267716534
        },
        {
          "duration": 0.18541666666666856,
          "durationTicks": 178,
          "midi": 58,
          "name": "A#3",
          "ticks": 159083,
          "time": 165.71145833333333,
          "velocity": 0.3543307086614173
        },
        {
          "duration": 0.16249999999999432,
          "durationTicks": 156,
          "midi": 58,
          "name": "A#3",
          "ticks": 159272,
          "time": 165.90833333333333,
          "velocity": 0.3464566929133858
        },
        {
          "duration": 0.18541666666666856,
          "durationTicks": 178,
          "midi": 58,
          "name": "A#3",
          "ticks": 159428,
          "time": 166.07083333333333,
          "velocity": 0.4015748031496063
        },
        {
          "duration": 0.16250000000002274,
          "durationTicks": 156,
          "midi": 67,
          "name": "G4",
          "ticks": 172589,
          "time": 179.78020833333332,
          "velocity": 0.4015748031496063
        },
        {
          "duration": 0.19687499999997726,
          "durationTicks": 189,
          "midi": 67,
          "name": "G4",
          "ticks": 178366,
          "time": 185.79791666666668,
          "velocity": 0.3464566929133858
        },
        {
          "duration": 0.16249999999999432,
          "durationTicks": 156,
          "midi": 58,
          "name": "A#3",
          "ticks": 180596,
          "time": 188.12083333333334,
          "velocity": 0.33070866141732286
        },
        {
          "duration": 0.1875,
          "durationTicks": 180,
          "midi": 51,
          "name": "D#3",
          "ticks": 181120,
          "time": 188.66666666666666,
          "velocity": 0.3228346456692913
        },
        {
          "duration": 0.37187499999998863,
          "durationTicks": 357,
          "midi": 63,
          "name": "D#4",
          "ticks": 182002,
          "time": 189.58541666666667,
          "velocity": 0.3228346456692913
        },
        {
          "duration": 0.1510416666666572,
          "durationTicks": 145,
          "midi": 58,
          "name": "A#3",
          "ticks": 182514,
          "time": 190.11875,
          "velocity": 0.4409448818897638
        },
        {
          "duration": 0.16249999999999432,
          "durationTicks": 156,
          "midi": 63,
          "name": "D#4",
          "ticks": 182749,
          "time": 190.36354166666666,
          "velocity": 0.2755905511811024
        },
        {
          "duration": 0.18541666666666856,
          "durationTicks": 178,
          "midi": 58,
          "name": "A#3",
          "ticks": 183285,
          "time": 190.921875,
          "velocity": 0.4094488188976378
        },
        {
          "duration": 0.16249999999999432,
          "durationTicks": 156,
          "midi": 63,
          "name": "D#4",
          "ticks": 183630,
          "time": 191.28125,
          "velocity": 0.33070866141732286
        },
        {
          "duration": 0.23229166666666856,
          "durationTicks": 223,
          "midi": 63,
          "name": "D#4",
          "ticks": 184589,
          "time": 192.28020833333332,
          "velocity": 0.33858267716535434
        },
        {
          "duration": 0.1510416666666572,
          "durationTicks": 145,
          "midi": 58,
          "name": "A#3",
          "ticks": 187901,
          "time": 195.73020833333334,
          "velocity": 0.28346456692913385
        },
        {
          "duration": 0.18541666666666856,
          "durationTicks": 178,
          "midi": 67,
          "name": "G4",
          "ticks": 189485,
          "time": 197.38020833333334,
          "velocity": 0.4251968503937008
        },
        {
          "duration": 0.1510416666666572,
          "durationTicks": 145,
          "midi": 65,
          "name": "F4",
          "ticks": 189664,
          "time": 197.56666666666666,
          "velocity": 0.4251968503937008
        },
        {
          "duration": 0.1395833333333485,
          "durationTicks": 134,
          "midi": 67,
          "name": "G4",
          "ticks": 189831,
          "time": 197.740625,
          "velocity": 0.4330708661417323
        },
        {
          "duration": 0.13958333333332007,
          "durationTicks": 134,
          "midi": 66,
          "name": "F#4",
          "ticks": 190310,
          "time": 198.23958333333334,
          "velocity": 0.5275590551181102
        },
        {
          "duration": 0.12916666666666288,
          "durationTicks": 124,
          "midi": 62,
          "name": "D4",
          "ticks": 190678,
          "time": 198.62291666666667,
          "velocity": 0.28346456692913385
        },
        {
          "duration": 0.16249999999999432,
          "durationTicks": 156,
          "midi": 58,
          "name": "A#3",
          "ticks": 191002,
          "time": 198.96041666666667,
          "velocity": 0.33070866141732286
        },
        {
          "duration": 0.5229166666666742,
          "durationTicks": 502,
          "midi": 58,
          "name": "A#3",
          "ticks": 191170,
          "time": 199.13541666666666,
          "velocity": 0.3700787401574803
        },
        {
          "duration": 0.19895833333333712,
          "durationTicks": 191,
          "midi": 67,
          "name": "G4",
          "ticks": 200091,
          "time": 208.428125,
          "velocity": 0.3464566929133858
        },
        {
          "duration": 0.16249999999999432,
          "durationTicks": 156,
          "midi": 58,
          "name": "A#3",
          "ticks": 202869,
          "time": 211.321875,
          "velocity": 0.31496062992125984
        },
        {
          "duration": 0.1510416666666572,
          "durationTicks": 145,
          "midi": 58,
          "name": "A#3",
          "ticks": 204230,
          "time": 212.73958333333334,
          "velocity": 0.30708661417322836
        },
        {
          "duration": 0.19687500000000568,
          "durationTicks": 189,
          "midi": 58,
          "name": "A#3",
          "ticks": 206070,
          "time": 214.65625,
          "velocity": 0.4566929133858268
        },
        {
          "duration": 0.22083333333333144,
          "durationTicks": 212,
          "midi": 63,
          "name": "D#4",
          "ticks": 206694,
          "time": 215.30625,
          "velocity": 0.3228346456692913
        },
        {
          "duration": 0.18541666666666856,
          "durationTicks": 178,
          "midi": 58,
          "name": "A#3",
          "ticks": 210141,
          "time": 218.896875,
          "velocity": 0.41732283464566927
        },
        {
          "duration": 0.19687499999997726,
          "durationTicks": 189,
          "midi": 63,
          "name": "D#4",
          "ticks": 210798,
          "time": 219.58125,
          "velocity": 0.31496062992125984
        },
        {
          "duration": 0.3479166666666629,
          "durationTicks": 334,
          "midi": 63,
          "name": "D#4",
          "ticks": 210988,
          "time": 219.77916666666667,
          "velocity": 0.30708661417322836
        },
        {
          "duration": 0.23229166666666856,
          "durationTicks": 223,
          "midi": 58,
          "name": "A#3",
          "ticks": 211333,
          "time": 220.13854166666667,
          "velocity": 0.5118110236220472
        },
        {
          "duration": 0.1395833333333485,
          "durationTicks": 134,
          "midi": 64,
          "name": "E4",
          "ticks": 212014,
          "time": 220.84791666666666,
          "velocity": 0.4566929133858268
        },
        {
          "duration": 0.16250000000002274,
          "durationTicks": 156,
          "midi": 65,
          "name": "F4",
          "ticks": 212337,
          "time": 221.184375,
          "velocity": 0.3543307086614173
        },
        {
          "duration": 0.17395833333333144,
          "durationTicks": 167,
          "midi": 63,
          "name": "D#4",
          "ticks": 212627,
          "time": 221.48645833333333,
          "velocity": 0.33858267716535434
        },
        {
          "duration": 0.15104166666668561,
          "durationTicks": 145,
          "midi": 67,
          "name": "G4",
          "ticks": 213385,
          "time": 222.27604166666666,
          "velocity": 0.5118110236220472
        },
        {
          "duration": 0.17500000000001137,
          "durationTicks": 168,
          "midi": 64,
          "name": "E4",
          "ticks": 213563,
          "time": 222.46145833333333,
          "velocity": 0.36220472440944884
        },
        {
          "duration": 0.13958333333332007,
          "durationTicks": 134,
          "midi": 65,
          "name": "F4",
          "ticks": 214713,
          "time": 223.659375,
          "velocity": 0.4015748031496063
        },
        {
          "duration": 0.18541666666666856,
          "durationTicks": 178,
          "midi": 63,
          "name": "D#4",
          "ticks": 215114,
          "time": 224.07708333333332,
          "velocity": 0.29133858267716534
        },
        {
          "duration": 0.16249999999999432,
          "durationTicks": 156,
          "midi": 58,
          "name": "A#3",
          "ticks": 215516,
          "time": 224.49583333333334,
          "velocity": 0.4015748031496063
        },
        {
          "duration": 0.17395833333333144,
          "durationTicks": 167,
          "midi": 58,
          "name": "A#3",
          "ticks": 215672,
          "time": 224.65833333333333,
          "velocity": 0.44881889763779526
        },
        {
          "duration": 0.17395833333333144,
          "durationTicks": 167,
          "midi": 58,
          "name": "A#3",
          "ticks": 215840,
          "time": 224.83333333333334,
          "velocity": 0.4330708661417323
        },
        {
          "duration": 0.17395833333333144,
          "durationTicks": 167,
          "midi": 58,
          "name": "A#3",
          "ticks": 216664,
          "time": 225.69166666666666,
          "velocity": 0.3464566929133858
        },
        {
          "duration": 0.17395833333333144,
          "durationTicks": 167,
          "midi": 58,
          "name": "A#3",
          "ticks": 216832,
          "time": 225.86666666666667,
          "velocity": 0.29133858267716534
        },
        {
          "duration": 0.3135416666666515,
          "durationTicks": 301,
          "midi": 58,
          "name": "A#3",
          "ticks": 216999,
          "time": 226.040625,
          "velocity": 0.5118110236220472
        },
        {
          "duration": 0.1510416666666572,
          "durationTicks": 145,
          "midi": 58,
          "name": "A#3",
          "ticks": 219888,
          "time": 229.05,
          "velocity": 0.33070866141732286
        },
        {
          "duration": 0.1510416666666572,
          "durationTicks": 145,
          "midi": 34,
          "name": "A#1",
          "ticks": 223646,
          "time": 232.96458333333334,
          "velocity": 0.3464566929133858
        },
        {
          "duration": 0.16249999999999432,
          "durationTicks": 156,
          "midi": 63,
          "name": "D#4",
          "ticks": 224638,
          "time": 233.99791666666667,
          "velocity": 0.33070866141732286
        },
        {
          "duration": 0.18541666666664014,
          "durationTicks": 178,
          "midi": 51,
          "name": "D#3",
          "ticks": 224806,
          "time": 234.17291666666668,
          "velocity": 0.3228346456692913
        },
        {
          "duration": 0.15208333333333712,
          "durationTicks": 146,
          "midi": 63,
          "name": "D#4",
          "ticks": 225006,
          "time": 234.38125,
          "velocity": 0.29133858267716534
        },
        {
          "duration": 0.22083333333333144,
          "durationTicks": 212,
          "midi": 51,
          "name": "D#3",
          "ticks": 225108,
          "time": 234.4875,
          "velocity": 0.30708661417322836
        },
        {
          "duration": 0.13958333333332007,
          "durationTicks": 134,
          "midi": 67,
          "name": "G4",
          "ticks": 229089,
          "time": 238.634375,
          "velocity": 0.4330708661417323
        },
        {
          "duration": 0.31354166666667993,
          "durationTicks": 301,
          "midi": 67,
          "name": "G4",
          "ticks": 229780,
          "time": 239.35416666666666,
          "velocity": 0.3543307086614173
        },
        {
          "duration": 0.17395833333333144,
          "durationTicks": 167,
          "midi": 58,
          "name": "A#3",
          "ticks": 233372,
          "time": 243.09583333333333,
          "velocity": 0.3700787401574803
        },
        {
          "duration": 0.13958333333332007,
          "durationTicks": 134,
          "midi": 58,
          "name": "A#3",
          "ticks": 235156,
          "time": 244.95416666666668,
          "velocity": 0.2755905511811024
        },
        {
          "duration": 0.13958333333332007,
          "durationTicks": 134,
          "midi": 58,
          "name": "A#3",
          "ticks": 236137,
          "time": 245.97604166666667,
          "velocity": 0.25196850393700787
        },
        {
          "duration": 0.5104166666666572,
          "durationTicks": 490,
          "midi": 63,
          "name": "D#4",
          "ticks": 239115,
          "time": 249.078125,
          "velocity": 0.3464566929133858
        },
        {
          "duration": 0.16249999999999432,
          "durationTicks": 156,
          "midi": 63,
          "name": "D#4",
          "ticks": 239617,
          "time": 249.60104166666667,
          "velocity": 0.4251968503937008
        },
        {
          "duration": 0.19687500000000568,
          "durationTicks": 189,
          "midi": 34,
          "name": "A#1",
          "ticks": 239706,
          "time": 249.69375,
          "velocity": 0.33070866141732286
        },
        {
          "duration": 0.19687500000000568,
          "durationTicks": 189,
          "midi": 63,
          "name": "D#4",
          "ticks": 239773,
          "time": 249.76354166666667,
          "velocity": 0.33070866141732286
        },
        {
          "duration": 0.2666666666666515,
          "durationTicks": 256,
          "midi": 63,
          "name": "D#4",
          "ticks": 239962,
          "time": 249.96041666666667,
          "velocity": 0.3858267716535433
        },
        {
          "duration": 0.3499999999999943,
          "durationTicks": 336,
          "midi": 63,
          "name": "D#4",
          "ticks": 240274,
          "time": 250.28541666666666,
          "velocity": 0.4566929133858268
        },
        {
          "duration": 0.3020833333333428,
          "durationTicks": 290,
          "midi": 63,
          "name": "D#4",
          "ticks": 240610,
          "time": 250.63541666666666,
          "velocity": 0.41732283464566927
        },
        {
          "duration": 0.2666666666666515,
          "durationTicks": 256,
          "midi": 58,
          "name": "A#3",
          "ticks": 242662,
          "time": 252.77291666666667,
          "velocity": 0.4015748031496063
        },
        {
          "duration": 0.3020833333333428,
          "durationTicks": 290,
          "midi": 58,
          "name": "A#3",
          "ticks": 243587,
          "time": 253.73645833333333,
          "velocity": 0.44881889763779526
        },
        {
          "duration": 0.1875,
          "durationTicks": 180,
          "midi": 65,
          "name": "F4",
          "ticks": 244022,
          "time": 254.18958333333333,
          "velocity": 0.31496062992125984
        },
        {
          "duration": 0.37187499999998863,
          "durationTicks": 357,
          "midi": 58,
          "name": "A#3",
          "ticks": 244569,
          "time": 254.759375,
          "velocity": 0.4330708661417323
        },
        {
          "duration": 0.3020833333333428,
          "durationTicks": 290,
          "midi": 63,
          "name": "D#4",
          "ticks": 244915,
          "time": 255.11979166666666,
          "velocity": 0.30708661417322836
        },
        {
          "duration": 0.19687499999997726,
          "durationTicks": 189,
          "midi": 58,
          "name": "A#3",
          "ticks": 245060,
          "time": 255.27083333333334,
          "velocity": 0.29133858267716534
        },
        {
          "duration": 0.5572916666666572,
          "durationTicks": 535,
          "midi": 58,
          "name": "A#3",
          "ticks": 245260,
          "time": 255.47916666666666,
          "velocity": 0.4645669291338583
        },
        {
          "duration": 0.5104166666666572,
          "durationTicks": 490,
          "midi": 63,
          "name": "D#4",
          "ticks": 245416,
          "time": 255.64166666666668,
          "velocity": 0.33858267716535434
        },
        {
          "duration": 0.4541666666666515,
          "durationTicks": 436,
          "midi": 58,
          "name": "A#3",
          "ticks": 245951,
          "time": 256.19895833333334,
          "velocity": 0.47244094488188976
        },
        {
          "duration": 0.5343750000000114,
          "durationTicks": 513,
          "midi": 58,
          "name": "A#3",
          "ticks": 246588,
          "time": 256.8625,
          "velocity": 0.3464566929133858
        },
        {
          "duration": 0.17395833333335986,
          "durationTicks": 167,
          "midi": 58,
          "name": "A#3",
          "ticks": 247100,
          "time": 257.3958333333333,
          "velocity": 0.4409448818897638
        },
        {
          "duration": 0.15104166666662877,
          "durationTicks": 145,
          "midi": 65,
          "name": "F4",
          "ticks": 247435,
          "time": 257.7447916666667,
          "velocity": 0.4094488188976378
        },
        {
          "duration": 0.42916666666667425,
          "durationTicks": 412,
          "midi": 58,
          "name": "A#3",
          "ticks": 248094,
          "time": 258.43125,
          "velocity": 0.3937007874015748
        },
        {
          "duration": 0.1395833333333485,
          "durationTicks": 134,
          "midi": 67,
          "name": "G4",
          "ticks": 248595,
          "time": 258.953125,
          "velocity": 0.5748031496062992
        },
        {
          "duration": 0.15104166666662877,
          "durationTicks": 145,
          "midi": 66,
          "name": "F#4",
          "ticks": 248751,
          "time": 259.115625,
          "velocity": 0.2755905511811024
        },
        {
          "duration": 0.38333333333332575,
          "durationTicks": 368,
          "midi": 58,
          "name": "A#3",
          "ticks": 249409,
          "time": 259.80104166666666,
          "velocity": 0.3700787401574803
        },
        {
          "duration": 0.15104166666668561,
          "durationTicks": 145,
          "midi": 65,
          "name": "F4",
          "ticks": 250591,
          "time": 261.03229166666665,
          "velocity": 0.4645669291338583
        },
        {
          "duration": 0.19687499999997726,
          "durationTicks": 189,
          "midi": 63,
          "name": "D#4",
          "ticks": 250759,
          "time": 261.20729166666666,
          "velocity": 0.33858267716535434
        },
        {
          "duration": 0.18541666666669698,
          "durationTicks": 178,
          "midi": 63,
          "name": "D#4",
          "ticks": 250970,
          "time": 261.4270833333333,
          "velocity": 0.3464566929133858
        },
        {
          "duration": 0.15104166666668561,
          "durationTicks": 145,
          "midi": 62,
          "name": "D4",
          "ticks": 251550,
          "time": 262.03125,
          "velocity": 0.33070866141732286
        },
        {
          "duration": 0.140625,
          "durationTicks": 135,
          "midi": 58,
          "name": "A#3",
          "ticks": 251717,
          "time": 262.20520833333336,
          "velocity": 0.4566929133858268
        },
        {
          "duration": 0.1395833333333485,
          "durationTicks": 134,
          "midi": 58,
          "name": "A#3",
          "ticks": 252688,
          "time": 263.21666666666664,
          "velocity": 0.29133858267716534
        },
        {
          "duration": 0.1395833333333485,
          "durationTicks": 134,
          "midi": 58,
          "name": "A#3",
          "ticks": 253648,
          "time": 264.21666666666664,
          "velocity": 0.2755905511811024
        },
        {
          "duration": 0.1968750000000341,
          "durationTicks": 189,
          "midi": 58,
          "name": "A#3",
          "ticks": 254461,
          "time": 265.06354166666665,
          "velocity": 0.3228346456692913
        },
        {
          "duration": 0.1395833333333485,
          "durationTicks": 134,
          "midi": 58,
          "name": "A#3",
          "ticks": 255275,
          "time": 265.9114583333333,
          "velocity": 0.30708661417322836
        },
        {
          "duration": 0.15104166666668561,
          "durationTicks": 145,
          "midi": 53,
          "name": "F3",
          "ticks": 262770,
          "time": 273.71875,
          "velocity": 0.33070866141732286
        },
        {
          "duration": 0.24374999999997726,
          "durationTicks": 234,
          "midi": 67,
          "name": "G4",
          "ticks": 264131,
          "time": 275.13645833333334,
          "velocity": 0.3779527559055118
        },
        {
          "duration": 0.1395833333333485,
          "durationTicks": 134,
          "midi": 58,
          "name": "A#3",
          "ticks": 268636,
          "time": 279.82916666666665,
          "velocity": 0.3228346456692913
        },
        {
          "duration": 0.2437500000000341,
          "durationTicks": 234,
          "midi": 63,
          "name": "D#4",
          "ticks": 269540,
          "time": 280.7708333333333,
          "velocity": 0.29133858267716534
        },
        {
          "duration": 0.15104166666668561,
          "durationTicks": 145,
          "midi": 58,
          "name": "A#3",
          "ticks": 269986,
          "time": 281.23541666666665,
          "velocity": 0.29133858267716534
        },
        {
          "duration": 0.13958333333329165,
          "durationTicks": 134,
          "midi": 58,
          "name": "A#3",
          "ticks": 271079,
          "time": 282.37395833333335,
          "velocity": 0.3464566929133858
        },
        {
          "duration": 0.24479166666668561,
          "durationTicks": 235,
          "midi": 58,
          "name": "A#3",
          "ticks": 272584,
          "time": 283.94166666666666,
          "velocity": 0.33858267716535434
        },
        {
          "duration": 0.22083333333335986,
          "durationTicks": 212,
          "midi": 58,
          "name": "A#3",
          "ticks": 274190,
          "time": 285.6145833333333,
          "velocity": 0.30708661417322836
        },
        {
          "duration": 0.22083333333330302,
          "durationTicks": 212,
          "midi": 66,
          "name": "F#4",
          "ticks": 276767,
          "time": 288.29895833333336,
          "velocity": 0.2992125984251969
        },
        {
          "duration": 0.2093749999999659,
          "durationTicks": 201,
          "midi": 58,
          "name": "A#3",
          "ticks": 278485,
          "time": 290.0885416666667,
          "velocity": 0.30708661417322836
        },
        {
          "duration": 0.23229166666664014,
          "durationTicks": 223,
          "midi": 58,
          "name": "A#3",
          "ticks": 281886,
          "time": 293.63125,
          "velocity": 0.3858267716535433
        },
        {
          "duration": 0.22083333333335986,
          "durationTicks": 212,
          "midi": 58,
          "name": "A#3",
          "ticks": 282544,
          "time": 294.31666666666666,
          "velocity": 0.33070866141732286
        },
        {
          "duration": 0.27812499999998863,
          "durationTicks": 267,
          "midi": 58,
          "name": "A#3",
          "ticks": 282756,
          "time": 294.5375,
          "velocity": 0.4645669291338583
        },
        {
          "duration": 0.1395833333333485,
          "durationTicks": 134,
          "midi": 67,
          "name": "G4",
          "ticks": 284608,
          "time": 296.46666666666664,
          "velocity": 0.30708661417322836
        },
        {
          "duration": 0.19687499999997726,
          "durationTicks": 189,
          "midi": 58,
          "name": "A#3",
          "ticks": 287462,
          "time": 299.43958333333336,
          "velocity": 0.28346456692913385
        },
        {
          "duration": 0.17395833333335986,
          "durationTicks": 167,
          "midi": 58,
          "name": "A#3",
          "ticks": 290998,
          "time": 303.12291666666664,
          "velocity": 0.3858267716535433
        },
        {
          "duration": 0.1624999999999659,
          "durationTicks": 156,
          "midi": 58,
          "name": "A#3",
          "ticks": 291254,
          "time": 303.38958333333335,
          "velocity": 0.33858267716535434
        },
        {
          "duration": 0.18541666666664014,
          "durationTicks": 178,
          "midi": 65,
          "name": "F4",
          "ticks": 293507,
          "time": 305.73645833333336,
          "velocity": 0.3779527559055118
        },
        {
          "duration": 0.30312500000002274,
          "durationTicks": 291,
          "midi": 67,
          "name": "G4",
          "ticks": 293529,
          "time": 305.759375,
          "velocity": 0.31496062992125984
        },
        {
          "duration": 0.22083333333335986,
          "durationTicks": 212,
          "midi": 87,
          "name": "D#6",
          "ticks": 294455,
          "time": 306.7239583333333,
          "velocity": 0.2992125984251969
        },
        {
          "duration": 0.19687499999997726,
          "durationTicks": 189,
          "midi": 58,
          "name": "A#3",
          "ticks": 296028,
          "time": 308.3625,
          "velocity": 0.2755905511811024
        },
        {
          "duration": 0.29062499999997726,
          "durationTicks": 279,
          "midi": 58,
          "name": "A#3",
          "ticks": 299486,
          "time": 311.96458333333334,
          "velocity": 0.36220472440944884
        },
        {
          "duration": 0.12916666666666288,
          "durationTicks": 124,
          "midi": 76,
          "name": "E5",
          "ticks": 303120,
          "time": 315.75,
          "velocity": 0.3228346456692913
        },
        {
          "duration": 0.2437500000000341,
          "durationTicks": 234,
          "midi": 67,
          "name": "G4",
          "ticks": 306121,
          "time": 318.87604166666665,
          "velocity": 0.30708661417322836
        },
        {
          "duration": 0.1624999999999659,
          "durationTicks": 156,
          "midi": 67,
          "name": "G4",
          "ticks": 306846,
          "time": 319.63125,
          "velocity": 0.3464566929133858
        },
        {
          "duration": 0.4645833333333371,
          "durationTicks": 446,
          "midi": 58,
          "name": "A#3",
          "ticks": 308039,
          "time": 320.87395833333335,
          "velocity": 0.3700787401574803
        },
        {
          "duration": 0.2093749999999659,
          "durationTicks": 201,
          "midi": 58,
          "name": "A#3",
          "ticks": 308485,
          "time": 321.3385416666667,
          "velocity": 0.3543307086614173
        },
        {
          "duration": 0.24479166666662877,
          "durationTicks": 235,
          "midi": 58,
          "name": "A#3",
          "ticks": 308875,
          "time": 321.7447916666667,
          "velocity": 0.41732283464566927
        },
        {
          "duration": 0.38333333333332575,
          "durationTicks": 368,
          "midi": 58,
          "name": "A#3",
          "ticks": 309122,
          "time": 322.00208333333336,
          "velocity": 0.30708661417322836
        },
        {
          "duration": 0.1395833333333485,
          "durationTicks": 134,
          "midi": 58,
          "name": "A#3",
          "ticks": 309489,
          "time": 322.384375,
          "velocity": 0.4094488188976378
        },
        {
          "duration": 0.1395833333333485,
          "durationTicks": 134,
          "midi": 66,
          "name": "F#4",
          "ticks": 311742,
          "time": 324.73125,
          "velocity": 0.4251968503937008
        },
        {
          "duration": 0.17395833333335986,
          "durationTicks": 167,
          "midi": 58,
          "name": "A#3",
          "ticks": 313159,
          "time": 326.20729166666666,
          "velocity": 0.2677165354330709
        },
        {
          "duration": 0.5802083333333599,
          "durationTicks": 557,
          "midi": 58,
          "name": "A#3",
          "ticks": 316984,
          "time": 330.19166666666666,
          "velocity": 0.30708661417322836
        },
        {
          "duration": 0.19687499999997726,
          "durationTicks": 189,
          "midi": 66,
          "name": "F#4",
          "ticks": 319560,
          "time": 332.875,
          "velocity": 0.31496062992125984
        },
        {
          "duration": 0.23229166666664014,
          "durationTicks": 223,
          "midi": 58,
          "name": "A#3",
          "ticks": 324468,
          "time": 337.9875,
          "velocity": 0.3543307086614173
        },
        {
          "duration": 0.15104166666662877,
          "durationTicks": 145,
          "midi": 58,
          "name": "A#3",
          "ticks": 328304,
          "time": 341.98333333333335,
          "velocity": 0.4094488188976378
        },
        {
          "duration": 0.18541666666664014,
          "durationTicks": 178,
          "midi": 58,
          "name": "A#3",
          "ticks": 330791,
          "time": 344.57395833333334,
          "velocity": 0.29133858267716534
        },
        {
          "duration": 0.39583333333337123,
          "durationTicks": 380,
          "midi": 58,
          "name": "A#3",
          "ticks": 335274,
          "time": 349.24375,
          "velocity": 0.33858267716535434
        },
        {
          "duration": 0.22083333333335986,
          "durationTicks": 212,
          "midi": 63,
          "name": "D#4",
          "ticks": 336345,
          "time": 350.359375,
          "velocity": 0.2992125984251969
        },
        {
          "duration": 0.15104166666668561,
          "durationTicks": 145,
          "midi": 63,
          "name": "D#4",
          "ticks": 337014,
          "time": 351.05625,
          "velocity": 0.2125984251968504
        },
        {
          "duration": 0.19687499999997726,
          "durationTicks": 189,
          "midi": 58,
          "name": "A#3",
          "ticks": 337684,
          "time": 351.75416666666666,
          "velocity": 0.28346456692913385
        },
        {
          "duration": 0.18541666666664014,
          "durationTicks": 178,
          "midi": 57,
          "name": "A3",
          "ticks": 337896,
          "time": 351.975,
          "velocity": 0.2440944881889764
        },
        {
          "duration": 0.1624999999999659,
          "durationTicks": 156,
          "midi": 59,
          "name": "B3",
          "ticks": 338174,
          "time": 352.26458333333335,
          "velocity": 0.5118110236220472
        },
        {
          "duration": 0.18541666666669698,
          "durationTicks": 178,
          "midi": 63,
          "name": "D#4",
          "ticks": 338821,
          "time": 352.93854166666665,
          "velocity": 0.2755905511811024
        },
        {
          "duration": 0.17395833333330302,
          "durationTicks": 167,
          "midi": 63,
          "name": "D#4",
          "ticks": 339055,
          "time": 353.1822916666667,
          "velocity": 0.29133858267716534
        },
        {
          "duration": 0.2666666666666515,
          "durationTicks": 256,
          "midi": 58,
          "name": "A#3",
          "ticks": 339491,
          "time": 353.63645833333334,
          "velocity": 0.31496062992125984
        },
        {
          "duration": 0.15104166666668561,
          "durationTicks": 145,
          "midi": 58,
          "name": "A#3",
          "ticks": 344743,
          "time": 359.10729166666664,
          "velocity": 0.3228346456692913
        },
        {
          "duration": 0.15104166666668561,
          "durationTicks": 145,
          "midi": 67,
          "name": "G4",
          "ticks": 344977,
          "time": 359.3510416666667,
          "velocity": 0.29133858267716534
        },
        {
          "duration": 0.2906250000000341,
          "durationTicks": 279,
          "midi": 58,
          "name": "A#3",
          "ticks": 345413,
          "time": 359.8052083333333,
          "velocity": 0.3464566929133858
        },
        {
          "duration": 0.4989583333333485,
          "durationTicks": 479,
          "midi": 58,
          "name": "A#3",
          "ticks": 350163,
          "time": 364.753125,
          "velocity": 0.3228346456692913
        },
        {
          "duration": 0.361458333333303,
          "durationTicks": 347,
          "midi": 58,
          "name": "A#3",
          "ticks": 350643,
          "time": 365.253125,
          "velocity": 0.31496062992125984
        },
        {
          "duration": 0.19687499999997726,
          "durationTicks": 189,
          "midi": 58,
          "name": "A#3",
          "ticks": 352986,
          "time": 367.69375,
          "velocity": 0.30708661417322836
        },
        {
          "duration": 0.2552083333333144,
          "durationTicks": 245,
          "midi": 58,
          "name": "A#3",
          "ticks": 353175,
          "time": 367.890625,
          "velocity": 0.3543307086614173
        },
        {
          "duration": 0.33645833333332575,
          "durationTicks": 323,
          "midi": 58,
          "name": "A#3",
          "ticks": 353476,
          "time": 368.20416666666665,
          "velocity": 0.3543307086614173
        },
        {
          "duration": 0.24374999999997726,
          "durationTicks": 234,
          "midi": 67,
          "name": "G4",
          "ticks": 355049,
          "time": 369.84270833333335,
          "velocity": 0.4094488188976378
        },
        {
          "duration": 0.2437500000000341,
          "durationTicks": 234,
          "midi": 58,
          "name": "A#3",
          "ticks": 357313,
          "time": 372.20104166666664,
          "velocity": 0.3858267716535433
        },
        {
          "duration": 0.32499999999998863,
          "durationTicks": 312,
          "midi": 58,
          "name": "A#3",
          "ticks": 357591,
          "time": 372.490625,
          "velocity": 0.30708661417322836
        },
        {
          "duration": 0.17395833333335986,
          "durationTicks": 167,
          "midi": 58,
          "name": "A#3",
          "ticks": 359799,
          "time": 374.790625,
          "velocity": 0.3779527559055118
        },
        {
          "duration": 0.16250000000002274,
          "durationTicks": 156,
          "midi": 67,
          "name": "G4",
          "ticks": 361985,
          "time": 377.0677083333333,
          "velocity": 0.36220472440944884
        },
        {
          "duration": 0.19687499999997726,
          "durationTicks": 189,
          "midi": 76,
          "name": "E5",
          "ticks": 369491,
          "time": 384.88645833333334,
          "velocity": 0.3464566929133858
        },
        {
          "duration": 0.18541666666664014,
          "durationTicks": 178,
          "midi": 76,
          "name": "E5",
          "ticks": 373049,
          "time": 388.59270833333335,
          "velocity": 0.31496062992125984
        },
        {
          "duration": 0.2093749999999659,
          "durationTicks": 201,
          "midi": 67,
          "name": "G4",
          "ticks": 373049,
          "time": 388.59270833333335,
          "velocity": 0.33070866141732286
        },
        {
          "duration": 0.16250000000002274,
          "durationTicks": 156,
          "midi": 58,
          "name": "A#3",
          "ticks": 376395,
          "time": 392.078125,
          "velocity": 0.33070866141732286
        },
        {
          "duration": 0.16250000000002274,
          "durationTicks": 156,
          "midi": 76,
          "name": "E5",
          "ticks": 380153,
          "time": 395.9927083333333,
          "velocity": 0.29133858267716534
        },
        {
          "duration": 0.40729166666670835,
          "durationTicks": 391,
          "midi": 58,
          "name": "A#3",
          "ticks": 381223,
          "time": 397.10729166666664,
          "velocity": 0.3228346456692913
        },
        {
          "duration": 0.15104166666668561,
          "durationTicks": 145,
          "midi": 58,
          "name": "A#3",
          "ticks": 382417,
          "time": 398.3510416666667,
          "velocity": 0.36220472440944884
        },
        {
          "duration": 0.19687499999997726,
          "durationTicks": 189,
          "midi": 66,
          "name": "F#4",
          "ticks": 384347,
          "time": 400.36145833333336,
          "velocity": 0.23622047244094488
        },
        {
          "duration": 0.2552083333333144,
          "durationTicks": 245,
          "midi": 58,
          "name": "A#3",
          "ticks": 385986,
          "time": 402.06875,
          "velocity": 0.30708661417322836
        },
        {
          "duration": 0.15104166666668561,
          "durationTicks": 145,
          "midi": 51,
          "name": "D#3",
          "ticks": 387938,
          "time": 404.1020833333333,
          "velocity": 0.33858267716535434
        },
        {
          "duration": 0.5802083333333599,
          "durationTicks": 557,
          "midi": 58,
          "name": "A#3",
          "ticks": 388272,
          "time": 404.45,
          "velocity": 0.3700787401574803
        },
        {
          "duration": 0.5239583333333258,
          "durationTicks": 503,
          "midi": 58,
          "name": "A#3",
          "ticks": 388830,
          "time": 405.03125,
          "velocity": 0.3858267716535433
        },
        {
          "duration": 0.13958333333329165,
          "durationTicks": 134,
          "midi": 58,
          "name": "A#3",
          "ticks": 389522,
          "time": 405.75208333333336,
          "velocity": 0.3700787401574803
        },
        {
          "duration": 0.5343750000000114,
          "durationTicks": 513,
          "midi": 63,
          "name": "D#4",
          "ticks": 391117,
          "time": 407.4135416666667,
          "velocity": 0.31496062992125984
        },
        {
          "duration": 0.4177083333333371,
          "durationTicks": 401,
          "midi": 63,
          "name": "D#4",
          "ticks": 391708,
          "time": 408.02916666666664,
          "velocity": 0.33858267716535434
        },
        {
          "duration": 0.18541666666669698,
          "durationTicks": 178,
          "midi": 63,
          "name": "D#4",
          "ticks": 392109,
          "time": 408.446875,
          "velocity": 0.4566929133858268
        },
        {
          "duration": 0.15104166666668561,
          "durationTicks": 145,
          "midi": 58,
          "name": "A#3",
          "ticks": 393080,
          "time": 409.4583333333333,
          "velocity": 0.28346456692913385
        },
        {
          "duration": 0.15104166666668561,
          "durationTicks": 145,
          "midi": 58,
          "name": "A#3",
          "ticks": 393671,
          "time": 410.07395833333334,
          "velocity": 0.3543307086614173
        },
        {
          "duration": 0.361458333333303,
          "durationTicks": 347,
          "midi": 58,
          "name": "A#3",
          "ticks": 394596,
          "time": 411.0375,
          "velocity": 0.3228346456692913
        },
        {
          "duration": 0.20937500000002274,
          "durationTicks": 201,
          "midi": 58,
          "name": "A#3",
          "ticks": 394976,
          "time": 411.43333333333334,
          "velocity": 0.30708661417322836
        },
        {
          "duration": 0.17395833333330302,
          "durationTicks": 167,
          "midi": 65,
          "name": "F4",
          "ticks": 397061,
          "time": 413.60520833333334,
          "velocity": 0.5669291338582677
        },
        {
          "duration": 0.16250000000002274,
          "durationTicks": 156,
          "midi": 65,
          "name": "F4",
          "ticks": 397429,
          "time": 413.98854166666666,
          "velocity": 0.3779527559055118
        },
        {
          "duration": 0.2437500000000341,
          "durationTicks": 234,
          "midi": 63,
          "name": "D#4",
          "ticks": 398064,
          "time": 414.65,
          "velocity": 0.3700787401574803
        },
        {
          "duration": 0.15104166666662877,
          "durationTicks": 145,
          "midi": 58,
          "name": "A#3",
          "ticks": 399648,
          "time": 416.3,
          "velocity": 0.4015748031496063
        },
        {
          "duration": 0.17395833333335986,
          "durationTicks": 167,
          "midi": 65,
          "name": "F4",
          "ticks": 400719,
          "time": 417.415625,
          "velocity": 0.4409448818897638
        },
        {
          "duration": 0.16250000000002274,
          "durationTicks": 156,
          "midi": 67,
          "name": "G4",
          "ticks": 400875,
          "time": 417.578125,
          "velocity": 0.31496062992125984
        },
        {
          "duration": 0.15104166666662877,
          "durationTicks": 145,
          "midi": 65,
          "name": "F4",
          "ticks": 401076,
          "time": 417.7875,
          "velocity": 0.5039370078740157
        },
        {
          "duration": 0.1395833333333485,
          "durationTicks": 134,
          "midi": 58,
          "name": "A#3",
          "ticks": 401812,
          "time": 418.5541666666667,
          "velocity": 0.31496062992125984
        },
        {
          "duration": 0.17395833333335986,
          "durationTicks": 167,
          "midi": 58,
          "name": "A#3",
          "ticks": 403429,
          "time": 420.23854166666666,
          "velocity": 0.36220472440944884
        },
        {
          "duration": 0.3135416666666515,
          "durationTicks": 301,
          "midi": 67,
          "name": "G4",
          "ticks": 403953,
          "time": 420.784375,
          "velocity": 0.44881889763779526
        },
        {
          "duration": 0.1395833333333485,
          "durationTicks": 134,
          "midi": 58,
          "name": "A#3",
          "ticks": 404835,
          "time": 421.703125,
          "velocity": 0.28346456692913385
        },
        {
          "duration": 0.3947916666666629,
          "durationTicks": 379,
          "midi": 58,
          "name": "A#3",
          "ticks": 406274,
          "time": 423.20208333333335,
          "velocity": 0.4251968503937008
        },
        {
          "duration": 0.22083333333330302,
          "durationTicks": 212,
          "midi": 58,
          "name": "A#3",
          "ticks": 406653,
          "time": 423.596875,
          "velocity": 0.33858267716535434
        },
        {
          "duration": 0.24374999999997726,
          "durationTicks": 234,
          "midi": 58,
          "name": "A#3",
          "ticks": 407009,
          "time": 423.96770833333335,
          "velocity": 0.4251968503937008
        },
        {
          "duration": 0.16250000000002274,
          "durationTicks": 156,
          "midi": 65,
          "name": "F4",
          "ticks": 408627,
          "time": 425.653125,
          "velocity": 0.4645669291338583
        },
        {
          "duration": 0.16250000000002274,
          "durationTicks": 156,
          "midi": 65,
          "name": "F4",
          "ticks": 408983,
          "time": 426.0239583333333,
          "velocity": 0.3779527559055118
        },
        {
          "duration": 0.1395833333333485,
          "durationTicks": 134,
          "midi": 62,
          "name": "D4",
          "ticks": 409518,
          "time": 426.58125,
          "velocity": 0.25196850393700787
        },
        {
          "duration": 0.1395833333333485,
          "durationTicks": 134,
          "midi": 63,
          "name": "D#4",
          "ticks": 409708,
          "time": 426.77916666666664,
          "velocity": 0.29133858267716534
        },
        {
          "duration": 0.2906250000000341,
          "durationTicks": 279,
          "midi": 58,
          "name": "A#3",
          "ticks": 411950,
          "time": 429.1145833333333,
          "velocity": 0.33070866141732286
        },
        {
          "duration": 0.16250000000002274,
          "durationTicks": 156,
          "midi": 58,
          "name": "A#3",
          "ticks": 412474,
          "time": 429.66041666666666,
          "velocity": 0.2755905511811024
        },
        {
          "duration": 0.15104166666668561,
          "durationTicks": 145,
          "midi": 58,
          "name": "A#3",
          "ticks": 412842,
          "time": 430.04375,
          "velocity": 0.25984251968503935
        },
        {
          "duration": 0.16250000000002274,
          "durationTicks": 156,
          "midi": 58,
          "name": "A#3",
          "ticks": 413176,
          "time": 430.39166666666665,
          "velocity": 0.4015748031496063
        },
        {
          "duration": 0.2666666666666515,
          "durationTicks": 256,
          "midi": 58,
          "name": "A#3",
          "ticks": 413355,
          "time": 430.578125,
          "velocity": 0.3937007874015748
        },
        {
          "duration": 0.23229166666669698,
          "durationTicks": 223,
          "midi": 63,
          "name": "D#4",
          "ticks": 414582,
          "time": 431.85625,
          "velocity": 0.30708661417322836
        },
        {
          "duration": 0.12916666666666288,
          "durationTicks": 124,
          "midi": 58,
          "name": "A#3",
          "ticks": 415741,
          "time": 433.06354166666665,
          "velocity": 0.30708661417322836
        },
        {
          "duration": 0.1968750000000341,
          "durationTicks": 189,
          "midi": 58,
          "name": "A#3",
          "ticks": 417984,
          "time": 435.4,
          "velocity": 0.3543307086614173
        },
        {
          "duration": 0.17395833333330302,
          "durationTicks": 167,
          "midi": 58,
          "name": "A#3",
          "ticks": 418173,
          "time": 435.596875,
          "velocity": 0.33858267716535434
        },
        {
          "duration": 0.30208333333337123,
          "durationTicks": 290,
          "midi": 58,
          "name": "A#3",
          "ticks": 418753,
          "time": 436.20104166666664,
          "velocity": 0.31496062992125984
        },
        {
          "duration": 0.2437500000000341,
          "durationTicks": 234,
          "midi": 63,
          "name": "D#4",
          "ticks": 420103,
          "time": 437.60729166666664,
          "velocity": 0.33858267716535434
        },
        {
          "duration": 0.19687499999997726,
          "durationTicks": 189,
          "midi": 62,
          "name": "D4",
          "ticks": 420772,
          "time": 438.3041666666667,
          "velocity": 0.33858267716535434
        },
        {
          "duration": 0.44270833333337123,
          "durationTicks": 425,
          "midi": 58,
          "name": "A#3",
          "ticks": 423024,
          "time": 440.65,
          "velocity": 0.3700787401574803
        },
        {
          "duration": 0.1395833333333485,
          "durationTicks": 134,
          "midi": 63,
          "name": "D#4",
          "ticks": 426303,
          "time": 444.065625,
          "velocity": 0.2992125984251969
        },
        {
          "duration": 0.1395833333333485,
          "durationTicks": 134,
          "midi": 58,
          "name": "A#3",
          "ticks": 427653,
          "time": 445.471875,
          "velocity": 0.2677165354330709
        },
        {
          "duration": 0.15104166666668561,
          "durationTicks": 145,
          "midi": 58,
          "name": "A#3",
          "ticks": 430508,
          "time": 448.4458333333333,
          "velocity": 0.31496062992125984
        },
        {
          "duration": 0.16250000000002274,
          "durationTicks": 156,
          "midi": 58,
          "name": "A#3",
          "ticks": 433497,
          "time": 451.559375,
          "velocity": 0.2992125984251969
        },
        {
          "duration": 0.15104166666668561,
          "durationTicks": 145,
          "midi": 58,
          "name": "A#3",
          "ticks": 434981,
          "time": 453.10520833333334,
          "velocity": 0.3464566929133858
        },
        {
          "duration": 0.15104166666668561,
          "durationTicks": 145,
          "midi": 58,
          "name": "A#3",
          "ticks": 436474,
          "time": 454.66041666666666,
          "velocity": 0.36220472440944884
        },
        {
          "duration": 0.18541666666664014,
          "durationTicks": 178,
          "midi": 51,
          "name": "D#3",
          "ticks": 437222,
          "time": 455.43958333333336,
          "velocity": 0.30708661417322836
        },
        {
          "duration": 0.13958333333329165,
          "durationTicks": 134,
          "midi": 58,
          "name": "A#3",
          "ticks": 438482,
          "time": 456.75208333333336,
          "velocity": 0.3228346456692913
        },
        {
          "duration": 0.33645833333332575,
          "durationTicks": 323,
          "midi": 58,
          "name": "A#3",
          "ticks": 439163,
          "time": 457.4614583333333,
          "velocity": 0.36220472440944884
        },
        {
          "duration": 0.1968750000000341,
          "durationTicks": 189,
          "midi": 58,
          "name": "A#3",
          "ticks": 439497,
          "time": 457.809375,
          "velocity": 0.3858267716535433
        },
        {
          "duration": 0.1395833333333485,
          "durationTicks": 134,
          "midi": 58,
          "name": "A#3",
          "ticks": 439687,
          "time": 458.0072916666667,
          "velocity": 0.41732283464566927
        },
        {
          "duration": 0.22187500000001137,
          "durationTicks": 213,
          "midi": 58,
          "name": "A#3",
          "ticks": 440389,
          "time": 458.73854166666666,
          "velocity": 0.3228346456692913
        },
        {
          "duration": 0.1395833333333485,
          "durationTicks": 134,
          "midi": 62,
          "name": "D4",
          "ticks": 442118,
          "time": 460.5395833333333,
          "velocity": 0.33858267716535434
        },
        {
          "duration": 0.15104166666668561,
          "durationTicks": 145,
          "midi": 58,
          "name": "A#3",
          "ticks": 443066,
          "time": 461.52708333333334,
          "velocity": 0.30708661417322836
        },
        {
          "duration": 0.25625000000002274,
          "durationTicks": 246,
          "midi": 58,
          "name": "A#3",
          "ticks": 444326,
          "time": 462.83958333333334,
          "velocity": 0.4094488188976378
        },
        {
          "duration": 0.18541666666669698,
          "durationTicks": 178,
          "midi": 58,
          "name": "A#3",
          "ticks": 444639,
          "time": 463.165625,
          "velocity": 0.2992125984251969
        },
        {
          "duration": 0.18541666666664014,
          "durationTicks": 178,
          "midi": 58,
          "name": "A#3",
          "ticks": 444951,
          "time": 463.490625,
          "velocity": 0.4015748031496063
        },
        {
          "duration": 0.4645833333333371,
          "durationTicks": 446,
          "midi": 58,
          "name": "A#3",
          "ticks": 445263,
          "time": 463.815625,
          "velocity": 0.3700787401574803
        },
        {
          "duration": 0.17395833333330302,
          "durationTicks": 167,
          "midi": 62,
          "name": "D4",
          "ticks": 445586,
          "time": 464.15208333333334,
          "velocity": 0.3464566929133858
        },
        {
          "duration": 0.1395833333333485,
          "durationTicks": 134,
          "midi": 65,
          "name": "F4",
          "ticks": 446334,
          "time": 464.93125,
          "velocity": 0.33070866141732286
        },
        {
          "duration": 0.1395833333333485,
          "durationTicks": 134,
          "midi": 63,
          "name": "D#4",
          "ticks": 446803,
          "time": 465.41979166666664,
          "velocity": 0.29133858267716534
        },
        {
          "duration": 0.22083333333335986,
          "durationTicks": 212,
          "midi": 58,
          "name": "A#3",
          "ticks": 448275,
          "time": 466.953125,
          "velocity": 0.33070866141732286
        },
        {
          "duration": 0.29062499999997726,
          "durationTicks": 279,
          "midi": 63,
          "name": "D#4",
          "ticks": 449100,
          "time": 467.8125,
          "velocity": 0.3700787401574803
        },
        {
          "duration": 0.2437500000000341,
          "durationTicks": 234,
          "midi": 63,
          "name": "D#4",
          "ticks": 449378,
          "time": 468.1020833333333,
          "velocity": 0.30708661417322836
        },
        {
          "duration": 0.13958333333329165,
          "durationTicks": 134,
          "midi": 63,
          "name": "D#4",
          "ticks": 449646,
          "time": 468.38125,
          "velocity": 0.31496062992125984
        },
        {
          "duration": 0.37187499999998863,
          "durationTicks": 357,
          "midi": 63,
          "name": "D#4",
          "ticks": 450082,
          "time": 468.8354166666667,
          "velocity": 0.30708661417322836
        },
        {
          "duration": 0.1395833333333485,
          "durationTicks": 134,
          "midi": 63,
          "name": "D#4",
          "ticks": 450438,
          "time": 469.20625,
          "velocity": 0.3858267716535433
        },
        {
          "duration": 0.17395833333330302,
          "durationTicks": 167,
          "midi": 63,
          "name": "D#4",
          "ticks": 450572,
          "time": 469.34583333333336,
          "velocity": 0.3779527559055118
        },
        {
          "duration": 0.20937500000002274,
          "durationTicks": 201,
          "midi": 63,
          "name": "D#4",
          "ticks": 450739,
          "time": 469.51979166666666,
          "velocity": 0.3700787401574803
        },
        {
          "duration": 0.18541666666664014,
          "durationTicks": 178,
          "midi": 65,
          "name": "F4",
          "ticks": 450951,
          "time": 469.740625,
          "velocity": 0.3937007874015748
        },
        {
          "duration": 0.37187499999998863,
          "durationTicks": 357,
          "midi": 58,
          "name": "A#3",
          "ticks": 452223,
          "time": 471.065625,
          "velocity": 0.3464566929133858
        },
        {
          "duration": 0.16250000000002274,
          "durationTicks": 156,
          "midi": 58,
          "name": "A#3",
          "ticks": 452836,
          "time": 471.70416666666665,
          "velocity": 0.31496062992125984
        },
        {
          "duration": 0.17395833333335986,
          "durationTicks": 167,
          "midi": 58,
          "name": "A#3",
          "ticks": 454576,
          "time": 473.51666666666665,
          "velocity": 0.36220472440944884
        },
        {
          "duration": 0.1968750000000341,
          "durationTicks": 189,
          "midi": 58,
          "name": "A#3",
          "ticks": 454944,
          "time": 473.9,
          "velocity": 0.4330708661417323
        },
        {
          "duration": 0.17395833333335986,
          "durationTicks": 167,
          "midi": 58,
          "name": "A#3",
          "ticks": 455892,
          "time": 474.8875,
          "velocity": 0.3779527559055118
        },
        {
          "duration": 0.23229166666664014,
          "durationTicks": 223,
          "midi": 58,
          "name": "A#3",
          "ticks": 460409,
          "time": 479.59270833333335,
          "velocity": 0.3937007874015748
        },
        {
          "duration": 0.13958333333329165,
          "durationTicks": 134,
          "midi": 57,
          "name": "A3",
          "ticks": 462104,
          "time": 481.35833333333335,
          "velocity": 0.33070866141732286
        },
        {
          "duration": 0.4177083333333371,
          "durationTicks": 401,
          "midi": 58,
          "name": "A#3",
          "ticks": 462327,
          "time": 481.590625,
          "velocity": 0.3937007874015748
        },
        {
          "duration": 0.17395833333330302,
          "durationTicks": 167,
          "midi": 58,
          "name": "A#3",
          "ticks": 463196,
          "time": 482.49583333333334,
          "velocity": 0.33858267716535434
        },
        {
          "duration": 0.1395833333333485,
          "durationTicks": 134,
          "midi": 67,
          "name": "G4",
          "ticks": 464981,
          "time": 484.35520833333334,
          "velocity": 0.33858267716535434
        },
        {
          "duration": 0.1875,
          "durationTicks": 180,
          "midi": 58,
          "name": "A#3",
          "ticks": 465193,
          "time": 484.57604166666664,
          "velocity": 0.4409448818897638
        },
        {
          "duration": 0.13958333333329165,
          "durationTicks": 134,
          "midi": 58,
          "name": "A#3",
          "ticks": 466877,
          "time": 486.33020833333336,
          "velocity": 0.30708661417322836
        },
        {
          "duration": 0.17395833333330302,
          "durationTicks": 167,
          "midi": 58,
          "name": "A#3",
          "ticks": 468517,
          "time": 488.0385416666667,
          "velocity": 0.31496062992125984
        },
        {
          "duration": 0.17395833333330302,
          "durationTicks": 167,
          "midi": 58,
          "name": "A#3",
          "ticks": 470335,
          "time": 489.9322916666667,
          "velocity": 0.3543307086614173
        },
        {
          "duration": 0.15208333333333712,
          "durationTicks": 146,
          "midi": 58,
          "name": "A#3",
          "ticks": 476725,
          "time": 496.5885416666667,
          "velocity": 0.28346456692913385
        },
        {
          "duration": 0.1968750000000341,
          "durationTicks": 189,
          "midi": 58,
          "name": "A#3",
          "ticks": 477350,
          "time": 497.2395833333333,
          "velocity": 0.31496062992125984
        },
        {
          "duration": 0.1395833333333485,
          "durationTicks": 134,
          "midi": 58,
          "name": "A#3",
          "ticks": 477540,
          "time": 497.4375,
          "velocity": 0.4330708661417323
        },
        {
          "duration": 0.18541666666669698,
          "durationTicks": 178,
          "midi": 58,
          "name": "A#3",
          "ticks": 477673,
          "time": 497.57604166666664,
          "velocity": 0.3858267716535433
        },
        {
          "duration": 0.17395833333330302,
          "durationTicks": 167,
          "midi": 58,
          "name": "A#3",
          "ticks": 477985,
          "time": 497.9010416666667,
          "velocity": 0.44881889763779526
        },
        {
          "duration": 0.326041666666697,
          "durationTicks": 313,
          "midi": 58,
          "name": "A#3",
          "ticks": 480583,
          "time": 500.60729166666664,
          "velocity": 0.33070866141732286
        },
        {
          "duration": 0.17395833333335986,
          "durationTicks": 167,
          "midi": 58,
          "name": "A#3",
          "ticks": 481175,
          "time": 501.2239583333333,
          "velocity": 0.3464566929133858
        },
        {
          "duration": 0.19687499999997726,
          "durationTicks": 189,
          "midi": 58,
          "name": "A#3",
          "ticks": 483194,
          "time": 503.32708333333335,
          "velocity": 0.30708661417322836
        },
        {
          "duration": 0.17395833333335986,
          "durationTicks": 167,
          "midi": 65,
          "name": "F4",
          "ticks": 485179,
          "time": 505.39479166666666,
          "velocity": 0.25196850393700787
        },
        {
          "duration": 0.2562499999999659,
          "durationTicks": 246,
          "midi": 58,
          "name": "A#3",
          "ticks": 486171,
          "time": 506.428125,
          "velocity": 0.3543307086614173
        },
        {
          "duration": 0.2093749999999659,
          "durationTicks": 201,
          "midi": 58,
          "name": "A#3",
          "ticks": 486663,
          "time": 506.940625,
          "velocity": 0.3858267716535433
        },
        {
          "duration": 0.18541666666664014,
          "durationTicks": 178,
          "midi": 58,
          "name": "A#3",
          "ticks": 488369,
          "time": 508.71770833333335,
          "velocity": 0.3858267716535433
        },
        {
          "duration": 0.1624999999999659,
          "durationTicks": 156,
          "midi": 58,
          "name": "A#3",
          "ticks": 489172,
          "time": 509.5541666666667,
          "velocity": 0.4330708661417323
        },
        {
          "duration": 0.3250000000000455,
          "durationTicks": 312,
          "midi": 58,
          "name": "A#3",
          "ticks": 492596,
          "time": 513.1208333333333,
          "velocity": 0.30708661417322836
        },
        {
          "duration": 0.19687499999997726,
          "durationTicks": 189,
          "midi": 58,
          "name": "A#3",
          "ticks": 493131,
          "time": 513.678125,
          "velocity": 0.3464566929133858
        },
        {
          "duration": 0.18541666666669698,
          "durationTicks": 178,
          "midi": 63,
          "name": "D#4",
          "ticks": 494057,
          "time": 514.6427083333333,
          "velocity": 0.28346456692913385
        },
        {
          "duration": 0.17395833333330302,
          "durationTicks": 167,
          "midi": 58,
          "name": "A#3",
          "ticks": 494871,
          "time": 515.490625,
          "velocity": 0.3937007874015748
        },
        {
          "duration": 0.15104166666674246,
          "durationTicks": 145,
          "midi": 63,
          "name": "D#4",
          "ticks": 495071,
          "time": 515.6989583333333,
          "velocity": 0.25196850393700787
        },
        {
          "duration": 0.15104166666662877,
          "durationTicks": 145,
          "midi": 58,
          "name": "A#3",
          "ticks": 495673,
          "time": 516.3260416666667,
          "velocity": 0.3464566929133858
        },
        {
          "duration": 0.15104166666662877,
          "durationTicks": 145,
          "midi": 58,
          "name": "A#3",
          "ticks": 496700,
          "time": 517.3958333333334,
          "velocity": 0.30708661417322836
        },
        {
          "duration": 0.2781250000000455,
          "durationTicks": 267,
          "midi": 58,
          "name": "A#3",
          "ticks": 497335,
          "time": 518.0572916666666,
          "velocity": 0.2992125984251969
        },
        {
          "duration": 0.19687499999997726,
          "durationTicks": 189,
          "midi": 63,
          "name": "D#4",
          "ticks": 498529,
          "time": 519.3010416666667,
          "velocity": 0.29133858267716534
        },
        {
          "duration": 0.30208333333337123,
          "durationTicks": 290,
          "midi": 58,
          "name": "A#3",
          "ticks": 499957,
          "time": 520.7885416666667,
          "velocity": 0.3779527559055118
        },
        {
          "duration": 0.38333333333332575,
          "durationTicks": 368,
          "midi": 58,
          "name": "A#3",
          "ticks": 500347,
          "time": 521.1947916666667,
          "velocity": 0.36220472440944884
        },
        {
          "duration": 0.1739583333334167,
          "durationTicks": 167,
          "midi": 58,
          "name": "A#3",
          "ticks": 502577,
          "time": 523.5177083333333,
          "velocity": 0.3543307086614173
        },
        {
          "duration": 0.19687499999997726,
          "durationTicks": 189,
          "midi": 67,
          "name": "G4",
          "ticks": 502778,
          "time": 523.7270833333333,
          "velocity": 0.36220472440944884
        },
        {
          "duration": 0.15104166666662877,
          "durationTicks": 145,
          "midi": 58,
          "name": "A#3",
          "ticks": 503112,
          "time": 524.075,
          "velocity": 0.30708661417322836
        },
        {
          "duration": 0.15104166666674246,
          "durationTicks": 145,
          "midi": 58,
          "name": "A#3",
          "ticks": 505053,
          "time": 526.096875,
          "velocity": 0.3779527559055118
        },
        {
          "duration": 0.16250000000002274,
          "durationTicks": 156,
          "midi": 67,
          "name": "G4",
          "ticks": 510797,
          "time": 532.0802083333333,
          "velocity": 0.33070866141732286
        },
        {
          "duration": 0.1750000000000682,
          "durationTicks": 168,
          "midi": 58,
          "name": "A#3",
          "ticks": 511098,
          "time": 532.39375,
          "velocity": 0.3464566929133858
        },
        {
          "duration": 0.19687499999997726,
          "durationTicks": 189,
          "midi": 58,
          "name": "A#3",
          "ticks": 511322,
          "time": 532.6270833333333,
          "velocity": 0.33858267716535434
        },
        {
          "duration": 0.1739583333334167,
          "durationTicks": 167,
          "midi": 58,
          "name": "A#3",
          "ticks": 511511,
          "time": 532.8239583333333,
          "velocity": 0.4566929133858268
        },
        {
          "duration": 0.19687499999997726,
          "durationTicks": 189,
          "midi": 58,
          "name": "A#3",
          "ticks": 511701,
          "time": 533.021875,
          "velocity": 0.3858267716535433
        },
        {
          "duration": 0.3250000000000455,
          "durationTicks": 312,
          "midi": 58,
          "name": "A#3",
          "ticks": 514299,
          "time": 535.728125,
          "velocity": 0.3464566929133858
        },
        {
          "duration": 0.372916666666697,
          "durationTicks": 358,
          "midi": 58,
          "name": "A#3",
          "ticks": 514711,
          "time": 536.1572916666667,
          "velocity": 0.3228346456692913
        },
        {
          "duration": 0.40625,
          "durationTicks": 390,
          "midi": 58,
          "name": "A#3",
          "ticks": 517511,
          "time": 539.0739583333333,
          "velocity": 0.3543307086614173
        },
        {
          "duration": 0.20937500000002274,
          "durationTicks": 201,
          "midi": 58,
          "name": "A#3",
          "ticks": 517901,
          "time": 539.4802083333333,
          "velocity": 0.31496062992125984
        },
        {
          "duration": 0.19687499999997726,
          "durationTicks": 189,
          "midi": 58,
          "name": "A#3",
          "ticks": 518102,
          "time": 539.6895833333333,
          "velocity": 0.4566929133858268
        },
        {
          "duration": 0.15104166666674246,
          "durationTicks": 145,
          "midi": 58,
          "name": "A#3",
          "ticks": 520120,
          "time": 541.7916666666666,
          "velocity": 0.3858267716535433
        },
        {
          "duration": 0.18541666666669698,
          "durationTicks": 178,
          "midi": 58,
          "name": "A#3",
          "ticks": 520913,
          "time": 542.6177083333333,
          "velocity": 0.33858267716535434
        },
        {
          "duration": 0.17395833333330302,
          "durationTicks": 167,
          "midi": 58,
          "name": "A#3",
          "ticks": 521314,
          "time": 543.0354166666667,
          "velocity": 0.3858267716535433
        },
        {
          "duration": 0.16354166666667425,
          "durationTicks": 157,
          "midi": 63,
          "name": "D#4",
          "ticks": 524358,
          "time": 546.20625,
          "velocity": 0.2992125984251969
        },
        {
          "duration": 0.42916666666667425,
          "durationTicks": 412,
          "midi": 63,
          "name": "D#4",
          "ticks": 524738,
          "time": 546.6020833333333,
          "velocity": 0.33858267716535434
        },
        {
          "duration": 0.18541666666669698,
          "durationTicks": 178,
          "midi": 65,
          "name": "F4",
          "ticks": 525329,
          "time": 547.2177083333333,
          "velocity": 0.3858267716535433
        },
        {
          "duration": 0.1395833333333485,
          "durationTicks": 134,
          "midi": 58,
          "name": "A#3",
          "ticks": 526478,
          "time": 548.4145833333333,
          "velocity": 0.41732283464566927
        },
        {
          "duration": 0.19687499999997726,
          "durationTicks": 189,
          "midi": 58,
          "name": "A#3",
          "ticks": 526824,
          "time": 548.775,
          "velocity": 0.36220472440944884
        },
        {
          "duration": 0.18541666666669698,
          "durationTicks": 178,
          "midi": 58,
          "name": "A#3",
          "ticks": 528519,
          "time": 550.540625,
          "velocity": 0.4015748031496063
        },
        {
          "duration": 0.16250000000002274,
          "durationTicks": 156,
          "midi": 58,
          "name": "A#3",
          "ticks": 529322,
          "time": 551.3770833333333,
          "velocity": 0.33858267716535434
        },
        {
          "duration": 0.16250000000002274,
          "durationTicks": 156,
          "midi": 58,
          "name": "A#3",
          "ticks": 532724,
          "time": 554.9208333333333,
          "velocity": 0.33070866141732286
        },
        {
          "duration": 0.18541666666669698,
          "durationTicks": 178,
          "midi": 58,
          "name": "A#3",
          "ticks": 533136,
          "time": 555.35,
          "velocity": 0.36220472440944884
        },
        {
          "duration": 0.19687499999997726,
          "durationTicks": 189,
          "midi": 58,
          "name": "A#3",
          "ticks": 534909,
          "time": 557.196875,
          "velocity": 0.4330708661417323
        },
        {
          "duration": 0.15104166666674246,
          "durationTicks": 145,
          "midi": 58,
          "name": "A#3",
          "ticks": 535712,
          "time": 558.0333333333333,
          "velocity": 0.3700787401574803
        },
        {
          "duration": 0.3479166666667197,
          "durationTicks": 334,
          "midi": 58,
          "name": "A#3",
          "ticks": 536883,
          "time": 559.253125,
          "velocity": 0.3543307086614173
        },
        {
          "duration": 0.18541666666669698,
          "durationTicks": 178,
          "midi": 58,
          "name": "A#3",
          "ticks": 537296,
          "time": 559.6833333333333,
          "velocity": 0.4094488188976378
        },
        {
          "duration": 0.16249999999990905,
          "durationTicks": 156,
          "midi": 58,
          "name": "A#3",
          "ticks": 540530,
          "time": 563.0520833333334,
          "velocity": 0.36220472440944884
        },
        {
          "duration": 0.20937500000002274,
          "durationTicks": 201,
          "midi": 58,
          "name": "A#3",
          "ticks": 543173,
          "time": 565.8052083333333,
          "velocity": 0.31496062992125984
        },
        {
          "duration": 0.30312500000002274,
          "durationTicks": 291,
          "midi": 58,
          "name": "A#3",
          "ticks": 543374,
          "time": 566.0145833333333,
          "velocity": 0.3937007874015748
        },
        {
          "duration": 0.19687499999997726,
          "durationTicks": 189,
          "midi": 58,
          "name": "A#3",
          "ticks": 543765,
          "time": 566.421875,
          "velocity": 0.4251968503937008
        }
      ],
      "endOfTrackTicks": 548761
    }
  ]
}
